<svg width="100" height="104" viewBox="0 0 100 104" fill="none" xmlns="http://www.w3.org/2000/svg">
<g filter="url(#filter0_d_909_1873)">
<g opacity="0.7">
<path d="M59.0945 96C57.0207 96 54.7133 95.349 52.3634 94.0325C51.1247 93.3381 49.4119 92.1156 47.5928 90.8209C44.5847 88.6725 41.1802 86.2421 39.0639 85.6056C35.7372 84.6073 31.7523 85.2222 27.9019 85.8153C22.2537 86.6833 16.924 87.5079 13.9583 83.3704C10.5751 78.647 11.205 71.7174 11.8066 65.0192C12.0331 62.4875 12.2738 59.869 12.2738 57.4675C12.2738 53.6483 11.3324 50.0243 10.4193 46.5233C9.05329 41.2646 7.7651 36.3025 9.80356 31.362C11.6651 26.8556 20.3214 24.1069 26.642 22.1033C28.001 21.6692 29.2892 21.2642 30.3155 20.8953C32.9202 19.9622 35.0719 17.4956 37.351 14.8915C40.6564 11.1229 44.0609 7.23131 49.3765 7.00708C54.0692 6.81901 58.2381 10.414 61.9186 13.5895C63.858 15.2677 65.6983 16.8518 67.2625 17.51C68.8621 18.1755 71.304 18.7397 73.8875 19.3328C79.3941 20.5987 85.6369 22.0309 87.5126 25.1775C89.6077 28.6929 88.2628 34.0095 87.0667 38.6967C86.3376 41.5684 85.6511 44.281 85.7643 46.357C85.8563 47.9772 86.8897 49.9664 87.9797 52.0786C89.6997 55.406 91.6532 59.1746 90.5915 62.6973C88.9848 68.0283 85.0211 71.023 81.1849 73.9091C79.3588 75.2834 77.6388 76.5855 76.2728 78.0756C74.0078 80.5494 71.8915 83.7032 69.846 86.7484C68.4091 88.8895 66.9228 91.0957 65.4222 93.0126C63.8722 94.9873 61.6497 95.9928 59.0733 95.9928L59.0945 96ZM34.9799 84.7158C36.438 84.7158 37.8465 84.8678 39.163 85.2584C41.3359 85.9094 44.7687 88.3615 47.791 90.5243C49.5959 91.8118 51.3017 93.0271 52.5262 93.7142C57.6365 96.5714 62.4778 96.2242 65.1604 92.7956C66.6538 90.8932 68.1331 88.687 69.5628 86.5531C71.6155 83.4934 73.7389 80.3324 76.018 77.8369C77.3982 76.3251 79.1393 75.0158 80.9725 73.627C84.7592 70.7698 88.6804 67.8113 90.2518 62.596C91.271 59.218 89.3528 55.5145 87.6612 52.2522C86.55 50.1039 85.5024 48.0785 85.4033 46.3787C85.283 44.2448 85.9767 41.5033 86.7128 38.6027C87.8877 33.9878 89.2113 28.7508 87.1941 25.3655C85.3963 22.3492 79.2314 20.9314 73.7884 19.6873C71.1837 19.0869 68.7276 18.5299 67.1068 17.85C65.4859 17.1701 63.6315 15.5715 61.6638 13.8716C58.0611 10.7395 53.9559 7.18791 49.3906 7.37598C44.2237 7.58575 40.8758 11.4195 37.6341 15.123C35.3267 17.7632 33.1396 20.2587 30.45 21.228C29.4166 21.5969 28.1284 22.0092 26.7624 22.4432C20.5054 24.4252 11.9411 27.145 10.1433 31.4995C8.14731 36.3242 9.42135 41.2357 10.7732 46.4293C11.6863 49.9592 12.6347 53.6049 12.6347 57.4675C12.6347 59.8835 12.4012 62.5092 12.1676 65.0554C11.566 71.6884 10.9502 78.5457 14.2556 83.1607C17.0868 87.1173 22.3174 86.3144 27.8595 85.4609C30.2447 85.092 32.6796 84.7158 34.987 84.7158H34.9799Z" fill="#055CFF"/>
<path d="M59.0662 95.414C57.0702 95.414 54.8407 94.8137 52.4483 93.6202C51.1813 92.9836 49.4756 91.9131 47.6636 90.7774C44.5988 88.8606 41.1236 86.6833 38.894 86.054C35.7443 85.1643 32.0142 85.6417 28.4115 86.1046C22.8695 86.8135 17.6318 87.4862 14.7581 83.3632C11.5943 78.8206 12.0756 72.1658 12.5427 65.728C12.7267 63.218 12.9108 60.6212 12.8683 58.2559C12.7904 54.4873 11.7287 50.9429 10.7024 47.5143C9.18776 42.4581 7.75801 37.684 9.64075 32.7725C11.4032 28.1793 19.9038 25.2715 26.1112 23.1521C27.4418 22.6964 28.6946 22.2696 29.7139 21.879C32.4318 20.8301 34.5481 18.2478 36.7918 15.5063C39.8991 11.7088 43.1125 7.78102 48.3431 7.39042C53.0287 7.03598 57.2826 10.6021 61.048 13.7414C62.9803 15.3544 64.8064 16.8807 66.3494 17.5245C68.0128 18.2189 70.5962 18.7397 73.3283 19.2966C78.7996 20.4106 85.007 21.6692 86.9534 24.7941C89.1122 28.2589 87.8665 33.5899 86.7694 38.2989C86.104 41.1344 85.4812 43.8107 85.6227 45.8361C85.736 47.4492 86.7764 49.4456 87.8806 51.5578C89.6289 54.9213 91.6178 58.7261 90.5561 62.2343C88.9706 67.4785 84.83 70.6178 81.1707 73.3882C79.3446 74.7698 77.6105 76.0791 76.2586 77.5692C74.206 79.8188 72.2808 82.7194 70.4193 85.5259C68.8409 87.9057 67.2059 90.3723 65.493 92.4339C63.8438 94.4231 61.6497 95.4213 59.0662 95.4213V95.414ZM34.7675 85.1787C36.2327 85.1787 37.6553 85.3162 38.986 85.6923C41.2651 86.3361 44.7616 88.5278 47.8476 90.4592C49.6525 91.5876 51.3583 92.6581 52.604 93.2802C57.9337 95.9493 62.407 95.5659 65.2099 92.1807C66.9086 90.1336 68.5365 87.6743 70.1149 85.3017C71.9835 82.4879 73.9229 79.5728 75.9896 77.3015C77.3627 75.797 79.1039 74.4733 80.9513 73.0772C84.7451 70.2055 88.6592 67.2326 90.2093 62.1113C91.2214 58.755 89.275 55.0153 87.555 51.7241C86.4367 49.5758 85.375 47.5432 85.2547 45.8578C85.106 43.7746 85.736 41.0765 86.4084 38.2121C87.4913 33.5827 88.7158 28.3312 86.642 24.9966C84.7805 22.0092 78.658 20.765 73.2505 19.6656C70.4971 19.1086 67.8995 18.5805 66.2079 17.8717C64.6153 17.2062 62.768 15.6655 60.8145 14.0307C57.1056 10.9348 52.9225 7.42658 48.3714 7.76656C43.2965 8.14269 40.1326 12.0126 37.075 15.745C34.8029 18.5227 32.6583 21.1412 29.8483 22.2262C28.822 22.6168 27.5622 23.0508 26.2315 23.5065C20.0949 25.6042 11.6863 28.4831 9.98049 32.91C8.14022 37.6985 9.55581 42.4147 11.0493 47.4058C12.0826 50.8561 13.1514 54.4222 13.2293 58.2487C13.2788 60.6357 13.0877 63.2397 12.9037 65.757C12.4436 72.1224 11.9623 78.7121 15.0483 83.1461C17.7946 87.0956 22.9261 86.4374 28.3549 85.7357C30.4924 85.4608 32.6725 85.1787 34.7675 85.1787Z" fill="#1559F8"/>
<path d="M59.0379 94.8281C57.1198 94.8281 54.961 94.2856 52.5404 93.2078C51.2663 92.6364 49.5676 91.7178 47.7698 90.7485C44.6343 89.0486 41.074 87.1245 38.7242 86.4952C35.7656 85.714 32.2903 86.0612 28.9353 86.4012C23.4853 86.9509 18.3467 87.4717 15.558 83.3414C12.6135 78.9797 12.9533 72.607 13.2859 66.4441C13.4204 63.9558 13.5549 61.3807 13.4629 59.0443C13.3072 55.3264 12.1251 51.8688 10.9856 48.5269C9.32227 43.6588 7.75096 39.0656 9.47799 34.1903C11.1342 29.5247 19.4721 26.4577 25.5521 24.2226C26.8615 23.7379 28.093 23.2895 29.1194 22.8699C31.9647 21.7126 34.0456 18.9928 36.2398 16.1139C39.163 12.2874 42.1853 8.33797 47.3239 7.76653C51.9812 7.25296 56.3483 10.7756 60.1916 13.8788C62.1098 15.4267 63.9217 16.8951 65.4435 17.5244C67.1634 18.2405 69.8672 18.7179 72.7409 19.2315C78.1909 20.2008 84.3771 21.3003 86.3943 24.3962C88.6238 27.8104 87.4843 33.1631 86.4721 37.8865C85.8776 40.6859 85.3114 43.3261 85.4812 45.2863C85.6228 46.8922 86.6703 48.8886 87.7745 51.0008C89.5581 54.4005 91.5754 58.2487 90.5207 61.7352C88.9636 66.8926 84.8088 70.0464 81.1495 72.8313C79.3163 74.2273 77.5822 75.5438 76.2374 77.0194C74.3405 79.1026 72.5569 81.8297 70.8298 84.4626C69.1524 87.0233 67.4182 89.6707 65.5426 91.8118C63.7873 93.8154 61.6355 94.8137 59.0309 94.8137L59.0379 94.8281ZM34.5057 85.6344C35.9991 85.6344 37.4501 85.7646 38.8091 86.1191C41.2014 86.7556 44.7829 88.6942 47.9397 90.4013C49.7304 91.3705 51.422 92.282 52.6819 92.8462C58.224 95.32 62.3433 94.9005 65.2595 91.5658C67.121 89.4392 68.848 86.8063 70.5184 84.2528C72.2525 81.6054 74.0432 78.8712 75.9614 76.7662C77.3274 75.2617 79.0757 73.938 80.923 72.5275C84.7168 69.6413 88.638 66.6611 90.1598 61.6267C91.1719 58.2921 89.1901 54.5162 87.4418 51.1816C86.3164 49.0333 85.2477 47.0007 85.1061 45.3225C84.9291 43.2972 85.5025 40.628 86.1041 37.7997C87.095 33.1486 88.2204 27.8827 86.0758 24.606C84.1435 21.6475 78.0494 20.5625 72.6701 19.6077C69.7823 19.0941 67.0502 18.6094 65.3019 17.8789C63.7306 17.2279 61.8974 15.745 59.9581 14.1754C56.1572 11.1301 51.8679 7.65803 47.3522 8.15714C42.3693 8.70688 39.4036 12.5912 36.53 16.3526C34.3004 19.2677 32.1983 22.0236 29.2538 23.2244C28.2204 23.6439 26.9818 24.0996 25.6724 24.5843C19.6561 26.7977 11.4244 29.8285 9.82481 34.3277C8.14025 39.0728 9.69032 43.6082 11.3324 48.404C12.4861 51.7675 13.6752 55.254 13.8309 59.0299C13.93 61.3807 13.7885 63.9703 13.654 66.4658C13.3284 72.5636 12.9887 78.8784 15.8623 83.1244C18.5236 87.0667 23.5631 86.5603 28.8929 86.0178C30.7614 85.8297 32.6654 85.6344 34.5057 85.6344Z" fill="#2455F0"/>
<path d="M58.9318 94.2496C56.7942 94.2496 54.6354 93.5841 52.6253 92.7956C51.3513 92.2965 49.7021 91.537 47.9538 90.7341C44.7121 89.244 41.0387 87.5659 38.5472 86.9366C35.7797 86.2494 32.5734 86.4809 29.4733 86.7051C24.1082 87.0957 19.0474 87.4646 16.3436 83.3271C13.6186 79.1534 13.8239 73.0556 14.022 67.1676C14.107 64.6938 14.1919 62.1331 14.0433 59.8329C13.8097 56.1728 12.5074 52.8092 11.2404 49.5614C9.42136 44.8814 7.7085 40.4618 9.29396 35.6154C10.8511 30.8485 19.0686 27.6152 25.0708 25.2499C26.3165 24.758 27.4985 24.295 28.5036 23.861C31.4763 22.5807 33.5077 19.738 35.6523 16.7216C38.3986 12.8662 41.2298 8.88783 46.2834 8.15002C50.9407 7.47731 55.3999 10.9566 59.3352 14.0308C61.2392 15.5209 63.037 16.9242 64.5304 17.539C66.2999 18.2696 69.124 18.7036 72.118 19.1593C77.561 19.9911 83.733 20.9315 85.8281 24.0057C88.1213 27.3692 87.0879 32.7437 86.1749 37.4816C85.644 40.2375 85.1415 42.8416 85.3397 44.7512C85.5025 46.3498 86.5571 48.3462 87.6754 50.4584C89.4874 53.8942 91.5471 57.7858 90.4924 61.2579C88.9565 66.3213 84.8017 69.4968 81.1424 72.2961C79.3022 73.6994 77.5681 75.0303 76.2303 76.4987C74.4608 78.4517 72.8612 80.9256 71.1696 83.5513C69.4284 86.2494 67.6306 89.0343 65.6134 91.226C63.5466 93.4611 61.2604 94.2423 58.9459 94.2423L58.9318 94.2496ZM34.1447 86.083C35.7019 86.083 37.2166 86.1988 38.6321 86.5532C41.1661 87.1825 44.8537 88.8751 48.1095 90.3724C49.8507 91.1754 51.4999 91.9276 52.7598 92.4267C58.5212 94.6908 62.2796 94.2568 65.309 90.9656C67.305 88.7956 69.0957 86.0251 70.8228 83.3488C72.5215 80.7158 74.1282 78.2275 75.926 76.2528C77.2849 74.7555 79.0332 73.4173 80.8876 71.9995C84.6814 69.0989 88.6026 66.1043 90.1031 61.1638C91.1082 57.8437 89.0981 54.0317 87.3144 50.6681C86.182 48.5198 85.1061 46.4872 84.9362 44.8163C84.731 42.8488 85.2406 40.2158 85.7785 37.4237C86.6774 32.7582 87.6966 27.4705 85.4954 24.2516C83.4923 21.3149 77.4123 20.389 72.0402 19.5644C69.0249 19.1014 66.1796 18.6674 64.3676 17.9224C62.8246 17.2858 61.0056 15.8609 59.0804 14.3635C55.2088 11.3327 50.8133 7.90408 46.3188 8.55509C41.4279 9.2712 38.6392 13.1845 35.9425 16.9676C33.7625 20.0273 31.7099 22.9135 28.631 24.2372C27.6188 24.6712 26.4368 25.1413 25.184 25.6332C19.2597 27.9696 11.1413 31.1596 9.64078 35.7528C8.09778 40.4618 9.78942 44.8163 11.5801 49.4312C12.8542 52.708 14.1707 56.0932 14.4043 59.8184C14.5529 62.1404 14.468 64.7082 14.383 67.1965C14.1848 73.0267 13.9867 79.0594 16.6409 83.1245C19.2244 87.074 24.1789 86.7123 29.4237 86.329C30.9879 86.2132 32.5734 86.0975 34.1235 86.0975L34.1447 86.083Z" fill="#3452E9"/>
<path d="M58.9459 93.6853C57.0773 93.6853 55.0388 93.179 52.7102 92.3833C51.4928 91.9638 49.9569 91.3851 48.336 90.7703C44.9315 89.4827 41.0669 88.0143 38.3702 87.385C35.8151 86.7846 32.8848 86.9148 30.0465 87.0378C24.7522 87.2693 19.7552 87.4863 17.1292 83.3198C14.6166 79.3414 14.6873 73.5258 14.7581 67.9054C14.7864 65.3303 14.8218 62.8998 14.6166 60.6213C14.2981 57.0191 12.8754 53.7568 11.4952 50.6102C9.5275 46.111 7.666 41.8578 9.1099 37.0403C10.575 32.1505 18.375 28.881 24.639 26.248C25.8139 25.7562 26.9181 25.2932 27.8878 24.852C30.9879 23.4487 32.9627 20.4758 35.0507 17.3292C37.62 13.4521 40.2813 9.43754 45.2429 8.53336C49.879 7.68705 54.4514 11.1374 58.4787 14.1827C60.3615 15.6077 62.1381 16.9531 63.6103 17.5535C65.4222 18.2985 68.3525 18.6746 71.4597 19.0725C76.9027 19.7669 83.0747 20.5553 85.2547 23.6223C87.6046 26.9352 86.6844 32.3314 85.8634 37.091C85.3963 39.8107 84.9574 42.3714 85.1768 44.2304C85.3679 45.8145 86.4226 47.8109 87.548 49.9231C89.3953 53.3951 91.4833 57.3301 90.4358 60.7949C88.9211 65.7715 84.7663 68.9615 81.0999 71.7753C79.2526 73.193 77.5114 74.524 76.1878 75.9924C74.5174 77.8369 73.0098 80.2094 71.4102 82.7267C69.6265 85.5332 67.7863 88.4339 65.6416 90.6473C63.5182 92.839 61.3736 93.6926 58.9459 93.6926V93.6853ZM33.5997 86.5242C35.2772 86.5242 36.9263 86.6255 38.4481 86.9872C41.1731 87.6237 45.0518 89.0921 48.4705 90.3869C50.0913 91.0017 51.6202 91.5804 52.8305 91.9927C58.0257 93.7721 61.7488 94.0759 65.3585 90.3507C67.4748 88.1662 69.301 85.2873 71.0775 82.4952C72.6842 79.9635 74.1989 77.5765 75.8976 75.7103C77.2495 74.2129 79.0049 72.8675 80.8664 71.4425C84.6601 68.5275 88.5884 65.5183 90.0606 60.6719C91.0657 57.3735 89.0131 53.5181 87.2082 50.1184C86.0687 47.97 84.9928 45.9447 84.7946 44.281C84.5681 42.3641 85.014 39.7673 85.4812 37.0186C86.281 32.3386 87.1941 27.0293 84.9433 23.861C82.8694 20.9387 76.7894 20.1647 71.4243 19.4775C68.2888 19.0797 65.3302 18.6963 63.4758 17.9296C61.9611 17.3075 60.1633 15.9476 58.2593 14.5082C54.2957 11.5135 49.8011 8.12106 45.3279 8.9312C40.529 9.80645 37.9172 13.7414 35.3904 17.5535C33.359 20.6132 31.2639 23.7742 28.0576 25.2209C27.0809 25.6621 25.9767 26.1251 24.8018 26.6169C18.9412 29.0763 10.9077 32.4471 9.49919 37.1488C8.09775 41.8216 9.93095 46.0098 11.8703 50.4366C13.2647 53.6194 14.7015 56.9106 15.0271 60.5779C15.2323 62.8781 15.197 65.4315 15.1686 67.9054C15.0979 73.4679 15.0271 79.2112 17.4761 83.0956C19.9817 87.0667 24.8725 86.8497 30.0395 86.6255C31.2286 86.5749 32.4318 86.5242 33.6138 86.5242H33.5997Z" fill="#444FE2"/>
<path d="M58.8185 93.1066C56.9499 93.1066 54.9822 92.6075 52.7951 91.9709C51.8821 91.7033 50.8204 91.3778 49.6667 91.0306C45.972 89.9094 41.3713 88.5206 38.1933 87.8262C35.8646 87.3198 33.2175 87.3488 30.6623 87.3849C25.4246 87.45 20.4701 87.5079 17.922 83.3053C15.6287 79.5222 15.5721 73.9959 15.5155 68.6576C15.4872 66.0897 15.4659 63.6665 15.2111 61.4097C14.8077 57.8725 13.2647 54.7188 11.7641 51.6663C9.64076 47.3407 7.63769 43.2465 8.94004 38.4508C10.3061 33.4235 18.0565 29.9732 24.2851 27.2028C25.3609 26.7254 26.3731 26.2697 27.2861 25.8429C30.5137 24.3166 32.4247 21.2135 34.449 17.9223C36.8485 14.0162 39.3328 9.97998 44.2166 8.90943C48.8456 7.89675 53.7223 11.4628 57.6506 14.3273C59.5121 15.6872 61.2675 16.9675 62.7043 17.5606C64.5516 18.3201 67.5881 18.6312 70.8015 18.9711C76.2586 19.5353 82.4377 20.1791 84.6955 23.2316C87.1091 26.4867 86.2952 31.9045 85.5803 36.6858C85.1768 39.3622 84.8017 41.8867 85.0424 43.695C85.2547 45.2719 86.3235 47.2683 87.4489 49.3733C89.3245 52.8887 91.455 56.8671 90.4075 60.3174C88.914 65.2072 84.7592 68.4044 81.0929 71.2327C79.2384 72.6577 77.4902 74.0031 76.1737 75.4642C74.5882 77.2147 73.1585 79.5077 71.6438 81.9309C69.8318 84.8315 67.9561 87.8262 65.7054 90.0396C63.3979 92.3109 61.1896 93.0993 58.8326 93.0993L58.8185 93.1066ZM32.538 86.9509C34.5057 86.9509 36.4733 87.0305 38.2711 87.4211C41.4633 88.1155 46.0711 89.5116 49.7799 90.6328C50.9336 90.98 51.9953 91.3055 52.9084 91.5731C57.7072 92.9836 61.4161 93.678 65.4081 89.7503C67.6235 87.5658 69.485 84.5928 71.2828 81.7139C72.8116 79.2763 74.2485 76.9688 75.8552 75.1894C77.2 73.6993 78.9624 72.3394 80.8239 70.9072C84.6177 67.9849 88.546 64.9613 89.9969 60.2017C90.9949 56.925 88.914 53.0261 87.0737 49.583C85.9271 47.4419 84.8442 45.4166 84.6248 43.7601C84.37 41.8939 84.7592 39.3405 85.1627 36.6352C85.8705 31.9407 86.6703 26.6096 84.3558 23.492C82.2041 20.5842 76.117 19.9549 70.7449 19.3979C67.5032 19.0579 64.4384 18.7469 62.5415 17.9657C61.0551 17.3581 59.2856 16.0561 57.4029 14.6817C53.3472 11.716 48.7465 8.35245 44.2945 9.32897C39.5806 10.3633 37.1457 14.3273 34.7888 18.1538C32.8211 21.3509 30.7897 24.6494 27.4489 26.2263C26.5359 26.6603 25.5166 27.1087 24.4408 27.5934C18.6156 30.183 10.6458 33.7346 9.32933 38.5737C8.06945 43.2176 10.0371 47.2322 12.1251 51.4926C13.6398 54.5741 15.197 57.764 15.6075 61.3735C15.8694 63.6448 15.8906 66.1982 15.9189 68.6648C15.9755 73.9452 16.0322 79.4137 18.2617 83.0955C20.6895 87.1028 25.5237 87.0377 30.6482 86.9799C31.271 86.9726 31.901 86.9654 32.538 86.9654V86.9509Z" fill="#534BDA"/>
<path d="M58.7902 92.5351C57.0419 92.5351 55.1521 92.1156 52.8801 91.5514C48.9376 90.5821 42.4118 89.1644 38.0093 88.2674C35.9213 87.8406 33.5855 87.7972 31.3206 87.7538C26.3377 87.6598 21.1778 87.5585 18.7006 83.2836C16.6196 79.703 16.4427 74.4733 16.2657 69.4171C16.1808 66.8492 16.0959 64.426 15.7844 62.1981C15.2961 58.7333 13.6257 55.688 12.019 52.744C9.73985 48.5848 7.58814 44.6498 8.75601 39.8758C10.023 34.6894 17.7592 31.0437 23.9736 28.1214C24.9221 27.673 25.8352 27.2462 26.6704 26.8339C30.0324 25.1847 31.9576 21.7922 33.8262 18.5227C36.0628 14.5949 38.3773 10.5297 43.1833 9.29281C47.791 8.10652 52.8022 11.6437 56.8225 14.4792C58.6557 15.774 60.3898 16.9964 61.7912 17.5751C63.674 18.3418 66.8024 18.595 70.1149 18.8626C75.5862 19.3039 81.7865 19.803 84.1293 22.841C86.5995 26.0527 85.8988 31.4922 85.283 36.288C84.9433 38.9209 84.6248 41.4092 84.8867 43.1597C85.1273 44.7294 86.1961 46.7186 87.3286 48.8235C89.2396 52.3751 91.4125 56.4114 90.3579 59.84C88.8928 64.6358 84.7309 67.8547 81.0645 70.6902C79.2101 72.1296 77.4548 73.4823 76.1454 74.9434C74.6378 76.6144 73.2717 78.835 71.8278 81.1787C69.9946 84.1588 68.1048 87.233 65.7478 89.4465C63.2988 91.7467 61.1825 92.5351 58.7973 92.5351H58.7902ZM45.0802 9.48811C44.4714 9.48811 43.8698 9.56044 43.2823 9.71235C38.6534 10.9059 36.3813 14.8843 34.1872 18.7397C32.2903 22.067 30.3297 25.5174 26.8544 27.2245C26.0192 27.6368 25.1061 28.0636 24.1506 28.512C18.0211 31.3982 10.3839 34.9932 9.16653 39.9843C8.03406 44.5992 10.1504 48.4546 12.387 52.5415C14.022 55.5217 15.7066 58.6031 16.202 62.1475C16.5205 64.3971 16.6055 66.9505 16.6904 69.4171C16.8603 74.4154 17.0372 79.5873 19.0615 83.0811C21.4256 87.1462 26.2315 87.2403 31.3277 87.3415C33.6068 87.3849 35.9637 87.4356 38.0871 87.8624C42.4967 88.7593 49.0297 90.177 52.9721 91.1463C58.2027 92.4339 61.3666 92.9764 65.4435 89.1427C67.7509 86.9726 69.6336 83.9201 71.4527 80.9617C72.9107 78.5963 74.2839 76.3612 75.8198 74.6613C77.1575 73.1785 78.927 71.8041 80.7956 70.3574C84.4124 67.5581 88.5177 64.3826 89.9474 59.7171C90.9454 56.462 88.822 52.5126 86.9534 49.0333C85.7997 46.8922 84.7168 44.8741 84.469 43.2321C84.193 41.4237 84.5186 38.9065 84.8583 36.2373C85.467 31.5211 86.1536 26.1756 83.7896 23.1087C81.56 20.2153 75.4588 19.7234 70.0725 19.2894C66.7317 19.0218 63.5678 18.7686 61.6284 17.9729C60.1775 17.3798 58.4292 16.1429 56.5748 14.8336C53.1561 12.4177 49.0084 9.48811 45.0802 9.48811Z" fill="#6348D3"/>
<path d="M58.6486 91.9565C57.0278 91.9565 55.3078 91.6093 53.2552 91.197L52.9721 91.1391C50.8558 90.7124 47.9963 90.2928 45.2288 89.8878C42.6524 89.5116 39.9911 89.121 37.8323 88.716C36.0204 88.376 34.0173 88.2675 32.0779 88.1662C27.0809 87.9058 21.9069 87.6382 19.4933 83.2692C17.6247 79.8984 17.3345 74.9724 17.0443 70.2201C16.8886 67.6377 16.747 65.2073 16.3719 62.9939C15.7986 59.6086 14.0079 56.6718 12.2809 53.8363C9.84603 49.8362 7.54569 46.0604 8.57907 41.2936C9.75402 35.9191 17.5044 32.0709 23.7401 28.9823C24.547 28.5844 25.3255 28.1938 26.0617 27.8249C29.5511 26.0383 31.4055 22.5228 33.1962 19.1159C35.2772 15.1592 37.4289 11.0723 42.1499 9.67623C46.7576 8.31634 51.8821 11.8173 56.0015 14.6311C57.8064 15.8608 59.5051 17.0254 60.8782 17.5824C62.7963 18.3636 66.0097 18.5444 69.4142 18.7397C74.9067 19.058 81.1353 19.4124 83.5631 22.4432C86.097 25.6042 85.5095 31.0655 84.9928 35.883C84.7168 38.4725 84.4549 40.9247 84.738 42.6173C84.9999 44.1725 86.0758 46.1544 87.2082 48.2521C89.1547 51.8544 91.363 55.9268 90.3155 59.3482C88.8716 64.0572 84.7097 67.2905 81.0362 70.1405C79.1747 71.5872 77.4123 72.9543 76.11 74.4082C74.6731 76.0068 73.3708 78.1624 71.9835 80.4481C70.1362 83.4934 68.2322 86.6472 65.7903 88.8462C63.1644 91.2115 61.0197 91.9493 58.6486 91.9493V91.9565ZM44.2945 9.81367C43.6079 9.81367 42.9355 9.90047 42.2702 10.0958C37.7191 11.4412 35.7089 15.2677 33.5785 19.3256C31.7523 22.7904 29.8696 26.371 26.2598 28.2228C25.5308 28.5989 24.7452 28.9823 23.9383 29.3873C17.7875 32.4326 10.1362 36.2302 9.01083 41.3948C8.01284 45.9808 10.2707 49.6843 12.656 53.6049C14.4042 56.4765 16.2162 59.4495 16.8037 62.9215C17.1859 65.1567 17.3345 67.7173 17.4832 70.1984C17.7663 74.9073 18.0565 79.7754 19.8755 83.0594C22.1759 87.2186 27.003 87.4646 32.1062 87.7322C34.0598 87.8335 36.077 87.942 37.9173 88.2892C40.0619 88.6943 42.7232 89.0849 45.2925 89.461C48.06 89.8661 50.9266 90.2856 53.057 90.7124L53.3402 90.7702C58.4292 91.7974 61.2392 92.3616 65.5001 88.5279C67.8995 86.3723 69.7894 83.2547 71.6155 80.2311C73.0098 77.9309 74.3263 75.7609 75.7915 74.1261C77.1221 72.6433 78.8987 71.2689 80.7744 69.8078C84.3912 66.9939 88.4964 63.8112 89.8979 59.2325C90.8959 55.9919 88.73 51.999 86.826 48.4764C85.6723 46.3425 84.5823 44.3316 84.3063 42.6968C84.009 40.9391 84.278 38.4653 84.554 35.8396C85.0565 31.1089 85.6298 25.7417 83.2163 22.7253C80.9088 19.8392 74.7793 19.492 69.3718 19.181C65.9319 18.9857 62.6831 18.7976 60.7012 17.9947C59.2856 17.416 57.5657 16.2442 55.7467 15C52.3068 12.6492 48.1591 9.81367 44.2803 9.81367H44.2945Z" fill="#7245CB"/>
<path d="M58.5141 91.385C57.1622 91.385 55.7396 91.1535 54.0762 90.8859L53.057 90.7195C51.1177 90.4157 48.697 90.2349 46.1277 90.0396C43.1903 89.8153 40.1539 89.5911 37.6554 89.1498C36.1619 88.8894 34.534 88.752 32.9556 88.6218C27.8878 88.195 22.643 87.761 20.2789 83.2474C18.6227 80.0936 18.2263 75.4931 17.837 71.0446C17.6247 68.5563 17.3982 65.9812 16.9523 63.775C16.287 60.4693 14.383 57.6555 12.5427 54.9285C9.94511 51.0875 7.49613 47.4636 8.40211 42.704C9.47088 37.1125 17.2991 33.0473 23.5844 29.7778C24.2284 29.4451 24.8513 29.1196 25.4459 28.8013C29.0698 26.8845 30.8322 23.2316 32.5451 19.6944C34.4703 15.716 36.4663 11.593 41.1094 10.0378C45.703 8.49707 50.9619 11.9763 55.1875 14.7612C56.957 15.9258 58.6203 17.0325 59.958 17.575C61.9045 18.3635 65.1957 18.4792 68.6852 18.6022C74.206 18.7975 80.47 19.0145 82.9897 22.0381C85.5803 25.1484 85.1131 30.6314 84.7026 35.4705C84.4903 38.0167 84.285 40.4254 84.5894 42.0674C84.8796 43.6154 85.9483 45.5901 87.0879 47.6806C89.0697 51.3262 91.3205 55.4565 90.273 58.8635C88.8503 63.4784 84.6885 66.7262 81.0221 69.5906C79.1535 71.0518 77.384 72.4261 76.0887 73.8728C74.7156 75.4063 73.4628 77.504 72.1392 79.7247C70.2848 82.8351 68.3737 86.0467 65.8398 88.2312C63.0157 90.6616 60.8782 91.3633 58.5141 91.3633V91.385ZM43.5018 10.1318C42.7373 10.1318 41.9871 10.2403 41.251 10.4863C36.7848 11.9836 34.9162 15.839 32.9414 19.9114C31.2002 23.5137 29.4024 27.2317 25.6511 29.2136C25.0566 29.5319 24.4266 29.8574 23.7896 30.1901C17.5893 33.4162 9.86725 37.4308 8.84094 42.798C7.97035 47.3623 10.3698 50.9139 12.9108 54.6753C14.7794 57.4385 16.7046 60.2884 17.3911 63.6882C17.8441 65.9161 18.0635 68.5056 18.283 71.0084C18.6652 75.4136 19.0615 79.9634 20.6753 83.0376C22.9332 87.3343 28.0506 87.761 33.0051 88.1733C34.5906 88.3035 36.2327 88.441 37.7474 88.7086C40.2247 89.1354 43.2469 89.3668 46.1772 89.5911C48.7536 89.7864 51.1814 89.9672 53.142 90.2783L54.1612 90.4446C58.7548 91.1897 61.2816 91.5947 65.5638 87.9129C68.0411 85.7791 69.938 82.5964 71.7712 79.5221C73.1089 77.2798 74.3688 75.1604 75.7702 73.598C77.0938 72.1223 78.8774 70.7335 80.7602 69.2579C84.377 66.4369 88.4823 63.2325 89.8625 58.755C90.8534 55.5288 88.6592 51.4926 86.7128 47.9265C85.5591 45.7999 84.462 43.7962 84.1647 42.1759C83.8462 40.4688 84.0514 38.0312 84.2709 35.4561C84.6743 30.7037 85.1273 25.322 82.6642 22.3563C80.2718 19.4774 74.114 19.2676 68.6852 19.0796C65.1533 18.9566 61.8195 18.8409 59.8094 18.0235C58.4292 17.4665 56.7446 16.3526 54.961 15.1735C51.5069 12.8878 47.3451 10.1391 43.5159 10.1391L43.5018 10.1318Z" fill="#8242C4"/>
<path d="M58.4221 90.8282C57.2967 90.8282 56.1076 90.6763 54.7203 90.5027C54.2249 90.4376 53.7011 90.3725 53.149 90.3074C51.245 90.0904 48.9093 90.0759 46.4462 90.0614C43.3602 90.047 40.168 90.0253 37.4926 89.5985C36.3813 89.4249 35.1993 89.2874 34.0456 89.1572C28.815 88.5713 23.4145 87.9637 21.0717 83.2331C19.6278 80.3108 19.1394 76.0503 18.6581 71.9344C18.3679 69.4027 18.0635 66.7842 17.5398 64.5708C16.7824 61.3519 14.7581 58.6539 12.8117 56.0498C10.0513 52.368 7.44658 48.8815 8.22515 44.1364C9.18776 38.2917 17.1363 33.9806 23.5277 30.5158L24.8371 29.8069C28.5885 27.7526 30.266 23.9695 31.8868 20.3094C33.6634 16.3021 35.5036 12.1501 40.076 10.4358C44.6555 8.71424 50.0489 12.1646 54.3877 14.9278C56.1147 16.0272 57.7426 17.0761 59.0521 17.5969C61.0197 18.3926 64.3959 18.436 67.9632 18.4866C73.5194 18.5589 79.8188 18.6385 82.4235 21.6621C85.0707 24.7218 84.7238 30.2265 84.4195 35.0873C84.2638 37.5901 84.1151 39.9554 84.4407 41.5468C84.7522 43.0803 85.828 45.0478 86.9676 47.1238C88.9919 50.8128 91.2851 55.001 90.2305 58.4007C88.8361 62.9288 84.6743 66.1839 81.0008 69.0628C79.1181 70.5312 77.3486 71.9272 76.0604 73.3667C74.7439 74.8423 73.5477 76.8893 72.2737 79.0594C70.4193 82.2276 68.5011 85.4971 65.8894 87.6527C62.8529 90.1554 60.7862 90.8209 58.4292 90.8209L58.4221 90.8282ZM42.709 10.4358C41.8597 10.4358 41.0386 10.566 40.2388 10.8698C35.8505 12.519 34.1305 16.3961 32.3115 20.4975C30.6552 24.2299 28.9494 28.0854 25.0566 30.212L23.7471 30.9209C17.4477 34.3423 9.60536 38.5955 8.67814 44.2159C7.92788 48.7658 10.4759 52.1655 13.1727 55.7749C15.1545 58.4224 17.2 61.1566 17.9857 64.4695C18.5094 66.7047 18.8138 69.3376 19.1111 71.8838C19.5853 75.9635 20.0666 80.1805 21.4751 83.0305C23.7047 87.5369 28.9848 88.1301 34.0951 88.7015C35.2488 88.8317 36.4379 88.9619 37.5563 89.1428C40.2034 89.5623 43.3744 89.584 46.4462 89.5985C48.9235 89.6129 51.2663 89.6274 53.1986 89.8516C53.7507 89.9167 54.2744 89.9818 54.7699 90.047C58.9671 90.5822 61.2675 90.8716 65.5921 87.3055C68.1402 85.2006 70.0371 81.96 71.8773 78.8279C73.1584 76.6362 74.3688 74.5674 75.7207 73.0629C77.0372 71.5872 78.8279 70.1839 80.7248 68.7011C84.3416 65.8656 88.4398 62.6539 89.7988 58.2705C90.7897 55.0661 88.546 50.972 86.5712 47.3625C85.4175 45.2503 84.3204 43.2539 83.9948 41.6553C83.6621 40.0061 83.8108 37.6046 83.9665 35.0729C84.2638 30.306 84.6035 24.9027 82.0838 21.9876C79.6065 19.1159 73.4133 19.0363 67.9561 18.964C64.3393 18.9206 60.9277 18.87 58.8822 18.0454C57.5444 17.5029 55.8953 16.4468 54.147 15.3328C50.6717 13.1122 46.5028 10.4503 42.7019 10.4503L42.709 10.4358Z" fill="#923EBD"/>
<path d="M41.1023 90.2785C39.7858 90.2785 38.5118 90.2134 37.3156 90.047C36.721 89.9602 36.1123 89.8807 35.4895 89.8011C30.2022 89.1067 24.2072 88.3183 21.8573 83.2259C20.6257 80.5568 20.0595 76.6652 19.5074 72.911C19.1252 70.307 18.7359 67.6089 18.1272 65.381C17.2708 62.249 15.1403 59.6811 13.0806 57.1856C10.1574 53.6556 7.38994 50.3138 8.04819 45.5687C8.90463 39.4347 17.0443 34.8487 23.5843 31.1669L24.2214 30.8052C28.1001 28.6135 29.6855 24.7002 31.2144 20.9099C32.8494 16.8736 34.534 12.6927 39.0355 10.8265C43.6079 8.9241 49.1429 12.3383 53.5878 15.087C55.2724 16.1286 56.8579 17.1123 58.1248 17.6187C60.1137 18.4216 63.5607 18.3927 67.2129 18.3637C72.8045 18.3131 79.1464 18.2625 81.8502 21.286C84.5469 24.3024 84.3275 29.8287 84.1364 34.7041C84.0373 37.1634 83.9453 39.4926 84.285 41.0261C84.6177 42.5451 85.6935 44.4981 86.8331 46.5669C88.8928 50.3066 91.2285 54.5526 90.1809 57.9378C88.8078 62.3719 84.646 65.6487 80.9725 68.5348C79.0827 70.0177 77.3061 71.421 76.025 72.8604C74.7651 74.2782 73.6114 76.2746 72.394 78.394C70.5396 81.6129 68.6215 84.9402 65.9318 87.0741C61.3948 90.6619 59.2078 90.4593 55.2299 90.076C54.6142 90.0181 53.9559 89.953 53.2339 89.9024C51.3229 89.7577 49.0296 89.9024 46.6019 90.0543C44.7687 90.17 42.893 90.2857 41.0952 90.2857L41.1023 90.2785ZM41.9092 10.7469C40.982 10.7469 40.076 10.9061 39.2196 11.2605C34.902 13.0544 33.3236 16.9604 31.6532 21.0907C30.089 24.9534 28.4752 28.9462 24.4549 31.2175L23.8179 31.5792C17.3628 35.2032 9.33638 39.7241 8.51534 45.6265C7.8854 50.1619 10.5821 53.4169 13.4416 56.8673C15.5367 59.399 17.7025 62.0103 18.5802 65.2364C19.196 67.4932 19.5924 70.2057 19.9746 72.8242C20.5196 76.5495 21.0787 80.4049 22.282 83.0089C24.5257 87.8625 30.3863 88.6365 35.5532 89.3165C36.169 89.396 36.7847 89.4756 37.3793 89.5624C40.1539 89.9602 43.4168 89.7577 46.5807 89.5624C49.0296 89.4105 51.3371 89.2658 53.2764 89.4105C53.9984 89.4611 54.6637 89.5262 55.2795 89.5841C59.2573 89.9602 61.2604 90.1555 65.6487 86.6763C68.2746 84.6003 70.1645 81.3091 71.9977 78.1336C73.2292 75.9925 74.3971 73.9744 75.6853 72.5204C76.9947 71.052 78.7925 69.6343 80.6965 68.137C84.3133 65.2942 88.4115 62.0681 89.7421 57.7715C90.733 54.5815 88.4468 50.4368 86.4296 46.7766C85.2759 44.679 84.1788 42.697 83.832 41.1129C83.4781 39.5143 83.5701 37.1562 83.6692 34.6679C83.8603 29.8866 84.0797 24.4615 81.5034 21.5898C78.9411 18.7254 72.7054 18.776 67.2129 18.8267C63.5182 18.8556 60.0288 18.8845 57.955 18.0527C56.6526 17.5246 55.0459 16.5337 53.3472 15.4848C49.8507 13.322 45.6676 10.7397 41.9021 10.7397L41.9092 10.7469Z" fill="#A13BB5"/>
<path d="M39.623 90.6329C38.7737 90.6329 37.9455 90.5895 37.1457 90.4882C32.0637 89.8372 25.099 88.9402 22.6571 83.2041C21.6379 80.8171 21.0504 77.497 20.4205 73.9887C19.9392 71.269 19.4367 68.4552 18.7218 66.1694C17.7733 63.1314 15.5296 60.6865 13.3638 58.3211C10.4052 55.0878 7.34041 51.7387 7.87833 46.9936C8.61444 40.5124 17.285 35.478 23.6197 31.8034C27.6329 29.4742 29.1122 25.4307 30.5491 21.5247C32.0425 17.4522 33.5855 13.2424 38.0092 11.217C42.5745 9.12657 48.2511 12.519 52.8164 15.2461C54.4514 16.2226 55.9944 17.1484 57.2259 17.6403C59.2361 18.4505 62.7538 18.342 66.4768 18.2335C72.1109 18.0671 78.5023 17.879 81.2981 20.8954C84.0514 23.8611 83.9594 29.4091 83.8745 34.3061C83.832 36.7221 83.7966 39.0079 84.1505 40.4907C84.5115 41.9953 85.5873 43.9338 86.7198 45.9809C88.822 49.7785 91.2073 54.0751 90.1526 57.4604C88.8007 61.8077 84.6389 65.0916 80.9725 67.9922C79.0756 69.4896 77.2849 70.9001 76.0179 72.3395C74.8076 73.6994 73.7034 75.6597 72.5285 77.7284C70.7661 80.846 68.763 84.376 65.9955 86.4809C61.3878 89.9891 59.3564 89.8589 55.6688 89.613C54.9681 89.5696 54.1966 89.5189 53.3401 89.49C51.4008 89.4249 49.1217 89.7142 46.7081 90.0253C44.344 90.3291 41.9163 90.6401 39.6301 90.6401L39.623 90.6329ZM41.1165 11.0362C40.1043 11.0362 39.1276 11.217 38.2003 11.6438C33.9536 13.5896 32.5167 17.5173 30.9879 21.6766C29.5228 25.6694 28.0081 29.7925 23.8533 32.2085C17.6105 35.8324 9.06035 40.8018 8.35255 47.037C7.83586 51.5579 10.6883 54.6755 13.7106 57.9812C15.9118 60.3899 18.1909 62.8782 19.1748 66.0175C19.8967 68.3322 20.3993 71.1605 20.8876 73.8947C21.4822 77.2221 22.0909 80.6652 23.0889 83.0016C25.2477 88.065 31.0021 89.2007 37.2024 90.0036C40.0902 90.3725 43.4168 89.9457 46.6373 89.5334C49.0721 89.2224 51.3724 88.9258 53.3472 88.9909C54.2107 89.0198 54.9822 89.0705 55.69 89.1139C59.3776 89.3526 61.225 89.4755 65.6983 86.0758C68.3879 84.0287 70.3626 80.5422 72.1038 77.468C73.2929 75.3703 74.4112 73.3956 75.657 71.9923C76.9593 70.5239 78.7642 69.0989 80.6752 67.5872C84.2921 64.7372 88.3902 61.4966 89.6926 57.294C90.6835 54.1185 88.3548 49.9087 86.2951 46.2051C85.1414 44.1219 84.0514 42.1544 83.6763 40.592C83.3082 39.044 83.3436 36.7293 83.3861 34.2844C83.471 29.4814 83.563 24.0419 80.9371 21.2209C78.2829 18.3637 72.0118 18.5445 66.4768 18.7109C62.7043 18.8194 59.1441 18.9279 57.0419 18.0816C55.782 17.5752 54.2178 16.6421 52.5686 15.6584C49.0509 13.5534 44.8536 11.0507 41.1094 11.0507L41.1165 11.0362Z" fill="#B138AE"/>
<path d="M38.7524 91.0235C38.1437 91.0235 37.5492 90.9946 36.9688 90.9295C29.5723 90.0904 25.1415 87.5587 23.4428 83.1825C22.643 81.1209 22.0414 78.271 21.4114 75.2619C20.7956 72.354 20.1657 69.3377 19.3163 66.9579C18.2688 64.0211 15.926 61.6992 13.654 59.4568C10.5184 56.3609 7.28379 53.1565 7.70139 48.4041C8.26055 42.0821 15.5721 37.2212 23.011 32.7799C27.1516 30.3133 28.5248 26.1396 29.8625 22.1106C31.2215 18.0092 32.6229 13.7632 36.9759 11.586C41.5341 9.3002 47.3663 12.671 52.0519 15.3835C53.6374 16.3022 55.1309 17.1629 56.3129 17.6403C58.3443 18.4505 61.9257 18.2769 65.7195 18.0888C71.396 17.8067 77.837 17.4884 80.7319 20.5048C83.5418 23.4271 83.5701 28.9968 83.6055 33.9083C83.6197 36.2809 83.6338 38.5233 84.0019 39.9555C84.3841 41.4383 85.4529 43.3624 86.5854 45.395C88.73 49.2432 91.1648 53.6122 90.1102 56.983C88.7866 61.2435 84.6248 64.5347 80.9584 67.4425C79.0544 68.9543 77.2566 70.3793 75.9896 71.8115C74.8288 73.1208 73.7601 75.0376 72.6347 77.063C70.8723 80.224 68.8834 83.8046 66.038 85.8805C61.3382 89.3164 59.4484 89.2441 56.0156 89.1284C55.2583 89.0994 54.3947 89.0705 53.4251 89.0777C51.4574 89.085 49.1783 89.5262 46.7576 89.9964C44.0821 90.5099 41.3359 91.0452 38.7595 91.0452L38.7524 91.0235ZM40.3237 11.3256C39.2267 11.3256 38.172 11.5353 37.1882 12.0272C33.0122 14.1177 31.7028 18.0744 30.3226 22.2697C28.9636 26.3856 27.5551 30.6461 23.2588 33.2067C16.2445 37.3876 8.72769 42.357 8.18977 48.4475C7.7934 52.9684 10.8015 55.9414 13.9866 59.0951C16.294 61.3809 18.6793 63.739 19.7693 66.7843C20.6328 69.2003 21.2699 72.2238 21.8856 75.1534C22.5156 78.1408 23.1101 80.969 23.8958 82.9944C25.5237 87.1898 29.82 89.6202 37.0254 90.4376C40.0123 90.7776 43.3956 90.1266 46.6656 89.49C49.1075 89.0199 51.4149 88.5714 53.4251 88.5641C54.416 88.5641 55.2724 88.5931 56.0368 88.6148C59.4697 88.7378 61.1896 88.7956 65.7549 85.461C68.5153 83.4501 70.4759 79.913 72.21 76.8026C73.3495 74.7483 74.4325 72.8097 75.6287 71.4643C76.9239 69.9959 78.7359 68.5637 80.6611 67.0375C84.2709 64.173 88.369 60.9324 89.6501 56.8166C90.641 53.6484 88.2628 49.3879 86.1677 45.6265C85.0211 43.565 83.9311 41.6192 83.5347 40.0712C83.1455 38.5739 83.1313 36.4039 83.1171 33.9011C83.0888 29.3223 83.0534 23.6224 80.385 20.8448C77.6459 17.9875 71.3252 18.3058 65.7407 18.5807C61.8974 18.7688 58.2664 18.9496 56.1359 18.0961C54.9185 17.6114 53.4109 16.7362 51.8113 15.8103C48.2723 13.7632 44.0538 11.3256 40.3308 11.3256H40.3237Z" fill="#C134A7"/>
<path d="M38.1225 91.4358C37.6766 91.4358 37.2307 91.4141 36.7919 91.3707C34.4349 91.1464 26.5713 89.8806 24.2214 83.1535C23.641 81.497 23.1031 79.2619 22.5298 76.8893C21.7441 73.656 20.9372 70.3141 19.8967 67.7463C18.7501 64.918 16.3011 62.719 13.9371 60.5996C10.6388 57.6484 7.22718 54.5887 7.52446 49.8291C7.9279 43.4347 14.9139 38.3351 22.3953 33.7708C26.6562 31.1523 27.9232 26.8629 29.1547 22.7182C30.3792 18.5806 31.6462 14.2984 35.9354 11.9693C40.4936 9.4882 46.4745 12.8373 51.2805 15.5281C52.8093 16.3817 54.2532 17.1918 55.3928 17.6475C57.4383 18.4649 61.0834 18.2117 64.9409 17.9441C70.667 17.5462 77.1575 17.0978 80.1515 20.1069C83.011 22.9858 83.1879 28.8159 83.3224 33.496C83.3932 35.8251 83.4569 38.0169 83.8391 39.4129C84.2426 40.8813 85.3113 42.7765 86.4367 44.7874C88.6309 48.7006 91.1153 53.1275 90.0606 56.4983C88.7583 60.6647 84.6035 63.9704 80.9371 66.8927C79.0261 68.419 77.2141 69.8512 75.9543 71.2834C74.843 72.542 73.8167 74.4155 72.7267 76.4047C70.9784 79.6091 68.9895 83.233 66.0734 85.2801C61.2746 88.6509 59.6254 88.6364 56.3058 88.6147C55.4989 88.6147 54.5859 88.6003 53.5029 88.6509C51.4999 88.7305 49.2137 89.3164 46.7859 89.9384C43.8911 90.6763 40.9183 91.4358 38.1154 91.4358H38.1225ZM39.531 11.6076C38.349 11.6076 37.2165 11.8463 36.169 12.4177C32.0638 14.6529 30.8818 18.6457 29.629 22.8701C28.3762 27.1088 27.0738 31.4923 22.6501 34.2121C15.289 38.6968 8.4092 43.7023 8.02699 49.858C7.74387 54.3717 10.9148 57.2144 14.2698 60.2235C16.6763 62.3791 19.1677 64.6142 20.3639 67.5582C21.4185 70.1622 22.2325 73.5258 23.0252 76.7736C23.5985 79.1317 24.1364 81.3524 24.7027 82.9871C26.9464 89.4321 34.5694 90.6473 36.8485 90.8643C39.9345 91.1609 43.3673 90.2856 46.6798 89.4393C49.1358 88.81 51.4503 88.2241 53.5029 88.1373C54.5929 88.0939 55.5131 88.1012 56.3271 88.1012C59.5263 88.1228 61.1401 88.1301 65.8115 84.8533C68.6356 82.8714 70.5892 79.2981 72.3162 76.1443C73.4133 74.1334 74.4537 72.2382 75.6074 70.929C76.8956 69.4678 78.7217 68.0139 80.654 66.4804C84.2638 63.6087 88.3549 60.3537 89.6147 56.3319C90.6057 53.1781 88.1779 48.8453 86.0333 45.0261C84.8937 42.9862 83.8108 41.0621 83.3861 39.5359C82.9827 38.0892 82.919 35.9626 82.8482 33.496C82.7137 28.9027 82.5438 23.1883 79.8259 20.4541C76.9947 17.6041 70.6175 18.0454 64.9976 18.436C61.0834 18.7036 57.3887 18.964 55.237 18.1032C54.0692 17.633 52.6111 16.8229 51.0681 15.9549C47.5008 13.9585 43.2753 11.5931 39.5523 11.5931L39.531 11.6076Z" fill="#D0319F"/>
<path d="M37.6058 91.8552C37.2731 91.8552 36.9475 91.8407 36.6149 91.819C32.1911 91.4718 26.6703 88.6073 25.007 83.1389C24.6885 82.09 24.3275 80.7663 23.9524 79.363C23.011 75.8765 21.8502 71.5364 20.4771 68.5563C19.2314 65.8365 16.6904 63.775 14.2273 61.7785C10.759 58.9503 7.17052 56.0352 7.35455 51.2467C7.61643 44.4689 15.204 38.8775 21.7936 34.7617C26.1819 32.0057 27.3357 27.5933 28.454 23.3329C29.5511 19.1592 30.6835 14.8408 34.9091 12.3525C39.4602 9.6689 45.8658 13.1409 50.5443 15.6726C52.0732 16.5045 53.3967 17.2206 54.4938 17.6546C56.5606 18.4792 60.2624 18.1465 64.1765 17.7993C69.9521 17.2857 76.4992 16.707 79.5994 19.7089C82.5155 22.5444 82.8269 28.389 83.0747 33.0908C83.2021 35.4706 83.3083 37.5248 83.7046 38.8703C84.1364 40.3097 85.191 42.1904 86.3093 44.1724C88.553 48.1435 91.094 52.65 90.0323 56.0207C88.7512 60.1004 84.5964 63.4133 80.9371 66.3428C79.0119 67.8763 77.1929 69.3302 75.9472 70.7552C74.8784 71.9704 73.8945 73.8005 72.847 75.7463C71.1058 78.9869 69.1311 82.6615 66.1371 84.6796C61.2321 87.9925 59.6749 88.0287 56.5747 88.101C55.7325 88.1227 54.7769 88.1444 53.6091 88.2312C51.5706 88.3903 49.2632 89.1209 46.8213 89.8877C43.7565 90.8569 40.6068 91.8552 37.6129 91.8552H37.6058ZM38.7029 11.904C37.4359 11.904 36.2397 12.1644 35.1568 12.801C31.1153 15.1808 30.0607 19.2026 28.9424 23.4631C27.7957 27.8248 26.6137 32.3385 22.0555 35.2029C15.5791 39.2536 8.11189 44.7366 7.85708 51.2684C7.68721 55.7893 11.0209 58.4946 14.5528 61.3662C17.0584 63.3988 19.6419 65.4965 20.9443 68.332C22.3315 71.3556 23.5065 75.7174 24.4478 79.2184C24.823 80.6216 25.184 81.9381 25.4954 82.9797C27.0879 88.2167 32.3964 90.9582 36.6573 91.2982C39.8424 91.5514 43.3106 90.4519 46.6656 89.3958C49.1358 88.6146 51.4715 87.8768 53.5595 87.7176C54.7416 87.6236 55.7042 87.6019 56.5535 87.5874C59.6466 87.5151 61.0622 87.4862 65.8469 84.2528C68.7347 82.307 70.6741 78.6903 72.3869 75.5004C73.4486 73.5329 74.4466 71.6739 75.5508 70.4153C76.8319 68.9541 78.6651 67.493 80.6115 65.9378C84.2213 63.0589 88.3053 59.7894 89.5369 55.8688C90.5278 52.7223 88.0434 48.3244 85.8563 44.44C84.7238 42.4291 83.6551 40.534 83.2092 39.0294C82.7915 37.6261 82.6854 35.5429 82.558 33.1269C82.3173 28.5192 82.013 22.7831 79.2455 20.0923C76.3152 17.2495 69.8884 17.8137 64.219 18.3201C60.2411 18.6745 56.4827 19.0073 54.3027 18.1392C53.1773 17.6908 51.8467 16.9674 50.3037 16.1356C46.8779 14.2766 42.4967 11.904 38.71 11.904H38.7029Z" fill="#E02E98"/>
<path d="M37.1528 92.2748C36.9192 92.2748 36.6857 92.2748 36.4521 92.2531C31.724 91.9637 27.0526 87.9492 25.8068 83.1028C25.092 80.3324 23.2092 73.4317 21.0788 69.3376C19.7269 66.7335 17.1009 64.8022 14.5529 62.936C10.8936 60.2596 7.11392 57.482 7.17762 52.6717C7.27671 45.4817 15.2182 39.572 21.1849 35.7527C25.7007 32.8521 26.7411 28.324 27.7462 23.9478C28.7159 19.7307 29.7139 15.3761 33.8757 12.7359C38.4269 9.84981 45.0023 13.3002 49.8012 15.8174C51.2663 16.5841 52.5262 17.2496 53.5737 17.6619C55.6546 18.4865 59.413 18.0815 63.3909 17.6547C69.2231 17.0254 75.8269 16.3165 79.0261 19.3184C81.9918 22.1032 82.4447 27.9768 82.8057 32.6858C82.9827 35.0222 83.1384 37.033 83.5489 38.3278C83.9948 39.7456 85.0424 41.5901 86.1536 43.5431C88.4469 47.5866 91.0445 52.1654 89.9828 55.5362C88.7229 59.5218 84.5752 62.8492 80.9159 65.7859C78.9765 67.3411 77.1504 68.8023 75.9047 70.2273C74.8784 71.3991 73.93 73.193 72.9249 75.0954C71.1908 78.3721 69.2302 82.0901 66.1725 84.0793C61.1542 87.3416 59.6891 87.4211 56.7871 87.573C55.9236 87.6164 54.9398 87.6671 53.687 87.8117C51.6131 88.0504 49.2845 88.9185 46.8284 89.8371C43.6221 91.0379 40.3167 92.2748 37.1457 92.2748H37.1528ZM37.9243 12.1645C36.5653 12.1645 35.2842 12.4611 34.1518 13.1772C30.1739 15.7017 29.2397 19.7596 28.2558 24.0563C27.2224 28.541 26.1607 33.1776 21.468 36.194C15.5933 39.9554 7.7934 45.7493 7.69431 52.679C7.63061 57.2071 11.1413 59.7894 14.8501 62.5092C17.4407 64.4116 20.1232 66.3791 21.5317 69.0916C23.6834 73.2364 25.5874 80.1732 26.3023 82.9653C27.4914 87.602 31.9647 91.4429 36.4733 91.7178C39.7504 91.9131 43.254 90.6038 46.6444 89.3308C49.1358 88.3977 51.4857 87.5152 53.6303 87.2765C54.8973 87.1318 55.8882 87.0812 56.7588 87.0378C59.6608 86.8859 60.9843 86.8135 65.8965 83.6308C68.8409 81.714 70.7732 78.0611 72.4719 74.8422C73.4911 72.9109 74.4537 71.088 75.5225 69.8728C76.7965 68.4189 78.6439 66.9361 80.5974 65.3664C84.2001 62.4803 88.2841 59.2035 89.4873 55.3698C90.4782 52.2305 87.9373 47.753 85.7006 43.8108C84.5752 41.836 83.5206 39.9626 83.0535 38.4942C82.6217 37.1415 82.466 35.0945 82.289 32.7292C81.9351 28.107 81.4963 22.3564 78.6793 19.709C75.657 16.8662 69.1736 17.5679 63.4475 18.1827C59.406 18.6167 55.5839 19.029 53.3897 18.1538C52.3138 17.727 51.0398 17.0615 49.5676 16.2876C46.1135 14.472 41.7181 12.1717 37.9243 12.1717V12.1645Z" fill="#EF2A90"/>
<path d="M36.7281 92.7089C36.5795 92.7089 36.4309 92.7089 36.2822 92.7016C32.0638 92.528 27.6259 88.1229 26.5925 83.0812C25.9201 79.7755 23.7259 73.6488 21.6733 70.1478C20.2223 67.6739 17.5044 65.8728 14.8855 64.1296C11.0351 61.5762 7.05729 58.936 7.00067 54.0968C6.93697 48.4475 11.3749 42.7692 20.5691 36.7438C25.2052 33.7057 26.1324 29.0619 27.0242 24.5627C27.8665 20.3094 28.7442 15.9043 32.8353 13.1122C37.3864 10.009 44.1388 13.4449 49.0721 15.9549C50.4594 16.6638 51.6627 17.2714 52.6606 17.6692C54.7557 18.4938 58.5708 18.0164 62.6052 17.5101C68.487 16.7723 75.1615 15.9332 78.4598 18.9278C81.4821 21.6693 82.0696 27.5573 82.5509 32.2808C82.7845 34.5665 82.9827 36.5413 83.4003 37.7926C83.8674 39.1815 84.9008 40.9898 85.9979 42.9067C88.3478 47.0225 91.0091 51.6881 89.9474 55.0588C88.7158 58.9577 84.5681 62.2923 80.9088 65.2363C78.9624 66.8059 77.1221 68.2815 75.8835 69.6993C74.8996 70.8205 73.9866 72.5854 73.024 74.4444C71.304 77.7573 69.3576 81.5187 66.222 83.479C61.0764 86.6979 59.7952 86.8064 56.9782 87.0378C56.1005 87.1102 55.1025 87.1897 53.779 87.385C51.6627 87.6961 49.3198 88.7088 46.8355 89.7793C43.5018 91.2188 40.0619 92.7016 36.7211 92.7016L36.7281 92.7089ZM37.1457 12.4322C35.6877 12.4322 34.3216 12.7577 33.1325 13.5751C29.2184 16.2442 28.4044 20.3384 27.548 24.6784C26.635 29.2789 25.6936 34.0457 20.8593 37.2067C11.8278 43.1164 7.47489 48.6355 7.53152 54.0896C7.58106 58.6394 11.2687 61.0843 15.1686 63.6739C17.8441 65.446 20.6045 67.2833 22.1192 69.8657C24.2072 73.4173 26.4226 79.6236 27.1092 82.9726C28.093 87.7901 32.3044 92 36.2964 92.1591C39.6584 92.2965 43.2045 90.7703 46.6302 89.2874C49.1429 88.2024 51.5211 87.1753 53.7011 86.857C55.0388 86.6617 56.0439 86.5749 56.9287 86.5026C59.6537 86.2783 60.8994 86.1698 65.9389 83.0233C68.9471 81.1426 70.8581 77.4535 72.5497 74.1985C73.5336 72.3033 74.4608 70.5167 75.48 69.3449C76.747 67.8909 78.6085 66.3936 80.5691 64.8167C84.1647 61.9234 88.2416 58.6394 89.4307 54.8997C90.4216 51.7604 87.824 47.2106 85.5307 43.1888C84.4266 41.2502 83.379 39.4202 82.8907 37.9807C82.4518 36.6715 82.2466 34.6678 82.013 32.3459C81.5458 27.7092 80.9654 21.9442 78.0989 19.3402C74.9775 16.5046 68.4374 17.3293 62.6618 18.0598C58.5566 18.5734 54.6779 19.0653 52.4625 18.19C51.4432 17.785 50.2258 17.1701 48.8244 16.454C45.342 14.6818 40.9325 12.4395 37.1316 12.4395L37.1457 12.4322Z" fill="#FF2789"/>
</g>
<g opacity="0.8">
<path d="M72.2949 87.725C66.307 87.725 57.6365 83.9346 50.8912 80.9906C46.9275 79.2546 43.5018 77.7645 41.9658 77.6488C40.2388 77.5186 37.4926 77.7935 34.3146 78.1117C24.37 79.1027 10.752 80.4554 7.91372 72.2237C6.10176 66.9722 9.93802 59.8256 13.0169 54.0895C14.2202 51.8471 15.3597 49.7277 15.9331 48.1147C16.7683 45.771 16.832 42.1977 16.9027 38.4146C17.0301 31.5791 17.1717 23.832 21.8361 20.3383C25.8351 17.3437 33.7766 18.9784 39.5735 20.1792C41.8597 20.6493 43.8344 21.0616 45.0023 21.0616C47.3097 21.0616 51.0115 19.1954 54.5929 17.3943C59.5334 14.906 64.6436 12.3309 67.3899 13.8065C72.5497 16.5769 74.2343 20.7578 75.8622 24.8086C76.4709 26.3276 77.108 27.9045 77.9148 29.3801C78.9695 31.3042 81.6874 32.9606 84.3133 34.5737C88.093 36.8812 92 39.2754 92 42.8198C92 44.8596 90.6127 47.0441 89.006 49.5686C87.463 51.999 85.7148 54.7477 84.7876 57.9955C83.8533 61.2651 83.6975 64.9469 83.5418 68.5057C83.2375 75.4498 82.926 82.6326 76.7328 86.6544C75.5579 87.4212 74.029 87.7394 72.2808 87.7394L72.2949 87.725ZM40.9962 76.8965C41.3642 76.8965 41.7039 76.9037 42.0154 76.9327C43.6645 77.0556 46.977 78.5023 51.1672 80.3324C59.7386 84.0793 71.4739 89.2078 76.3648 86.0323C82.2466 82.2131 82.5368 75.5366 82.8482 68.4623C83.0039 64.8601 83.1667 61.1349 84.1222 57.7785C85.0777 54.4295 86.8543 51.6301 88.4256 49.1635C89.9686 46.7331 91.3064 44.6426 91.3064 42.8126C91.3064 39.6733 87.5763 37.3947 83.9665 35.1885C81.1353 33.4597 78.4598 31.8178 77.3132 29.7273C76.4851 28.2083 75.841 26.6169 75.2181 25.0762C73.5619 20.9676 72.0047 17.0833 67.0714 14.4431C64.6507 13.141 59.7032 15.6366 54.9185 18.0453C51.0964 19.9694 47.4866 21.7922 45.0164 21.7922C43.7778 21.7922 41.7677 21.3799 39.4461 20.8953C33.7766 19.7235 26.0192 18.1176 22.2678 20.9314C17.8866 24.2154 17.745 31.7671 17.6247 38.4363C17.5539 42.2845 17.4831 45.9157 16.6125 48.3679C16.018 50.0388 14.9209 52.0786 13.654 54.4439C10.6387 60.0571 6.88742 67.0446 8.59321 71.9922C11.2474 79.6886 24.547 78.3649 34.2579 77.4028C36.9122 77.1424 39.2621 76.9037 41.0032 76.9037L40.9962 76.8965Z" fill="#00E0F7"/>
<path d="M71.849 87.2258C65.9248 87.2258 57.5445 83.7899 50.9903 81.1136C47.0478 79.5005 43.6433 78.1045 42.0083 77.9743C40.3662 77.8441 37.7686 78.0466 34.7676 78.2853C25.3468 79.0231 11.1059 80.1371 8.4092 71.8982C6.68217 66.625 10.5255 59.6809 13.6115 54.0967C14.8572 51.8399 16.0392 49.7132 16.6196 48.0857C17.4478 45.7493 17.4619 42.1832 17.469 38.4002C17.4832 31.7092 17.5044 24.1286 22.0768 20.6999C26.0121 17.7559 33.7908 19.0941 39.4744 20.0779C41.7606 20.4757 43.7353 20.8084 44.9598 20.7867C47.2956 20.7433 50.8983 19.0652 54.3806 17.4449C59.2715 15.1664 64.3252 12.8083 67.0219 14.2984C71.8349 16.9603 73.6398 21.0037 75.381 24.9098C76.0675 26.4505 76.7753 28.0419 77.6601 29.5103C78.7501 31.3259 81.2132 32.8521 83.825 34.4724C87.5692 36.7943 91.4409 39.1958 91.4338 42.7691C91.4338 44.8234 90.0677 46.9935 88.4964 49.5179C87.003 51.905 85.3113 54.6103 84.4124 57.793C83.4852 61.048 83.3437 64.6937 83.2092 68.2236C82.9473 75.0085 82.6713 82.0322 76.6408 86.0395C75.388 86.8786 73.7389 87.2331 71.849 87.2331V87.2258ZM40.8334 77.2364C41.2864 77.2364 41.6969 77.2509 42.0649 77.2799C43.799 77.4173 47.0832 78.7627 51.2451 80.4626C59.7457 83.9418 71.389 88.7159 76.2657 85.4464C81.9989 81.6344 82.2537 75.1026 82.5226 68.1874C82.6642 64.6141 82.8057 60.9251 83.7542 57.5904C84.6885 54.3137 86.4084 51.5578 87.9231 49.1346C89.4378 46.7114 90.7472 44.6137 90.7543 42.7619C90.7614 39.5864 87.0596 37.2862 83.4781 35.0655C80.7956 33.4018 78.2688 31.8322 77.0867 29.8719C76.1808 28.3674 75.4588 26.7543 74.7652 25.1991C72.9886 21.2207 71.3111 17.4666 66.7034 14.9132C64.3039 13.5895 59.406 15.868 54.6708 18.0814C50.962 19.8102 47.4584 21.445 44.974 21.4884C43.7 21.5101 41.6898 21.1701 39.3682 20.765C33.805 19.803 26.1891 18.4937 22.4873 21.2641C18.198 24.483 18.1768 31.8756 18.1626 38.4002C18.1556 42.2483 18.1414 45.8795 17.2708 48.3244C16.6692 50.0098 15.5367 52.0641 14.2202 54.4439C11.1979 59.9051 7.43951 66.6973 9.06745 71.6812C11.5943 79.3992 25.5166 78.3142 34.7251 77.5909C37.0962 77.4028 39.2125 77.2364 40.8405 77.2364H40.8334Z" fill="#09D5F8"/>
<path d="M71.3607 86.7267C65.493 86.7267 57.3958 83.638 51.0398 81.2148C47.1398 79.7247 43.7707 78.4444 42.0508 78.2997C40.4936 78.1695 38.0659 78.307 35.2418 78.4661C25.7715 79.0086 11.4527 79.8188 8.8905 71.5654C7.24134 66.2633 11.0988 59.5073 14.199 54.0822C15.4872 51.8254 16.7046 49.6843 17.2921 48.0495C18.1202 45.7276 18.0706 42.1615 18.014 38.3784C17.922 31.8322 17.8158 24.4107 22.3033 21.0471C26.182 18.1393 33.8262 19.1954 39.4107 19.9621C41.6827 20.2731 43.6504 20.548 44.9032 20.4974C47.2673 20.4178 50.7496 18.9277 54.1116 17.4883C58.9671 15.4123 63.9854 13.264 66.6467 14.783C71.1129 17.3291 73.0169 21.2135 74.8713 24.9676C75.6428 26.5373 76.4426 28.1576 77.4123 29.626C78.5448 31.3403 80.8664 32.8015 83.3295 34.3494C87.0454 36.6858 90.8888 39.1018 90.8746 42.704C90.8605 44.7656 89.5298 46.9356 87.9939 49.4528C86.5571 51.8037 84.922 54.4584 84.0373 57.5832C83.1172 60.8238 82.9898 64.4333 82.8694 67.927C82.6359 74.5528 82.4023 81.4029 76.5488 85.4247C75.2111 86.3433 73.4274 86.7195 71.3748 86.7195L71.3607 86.7267ZM40.5715 77.5692C41.1448 77.5692 41.6544 77.5836 42.1003 77.6198C43.9123 77.7717 47.3239 79.0665 51.2663 80.5783C59.7174 83.8044 71.2828 88.2168 76.1595 84.8677C81.7299 81.0412 81.9564 74.6613 82.1899 67.9125C82.3103 64.3754 82.4377 60.7225 83.3861 57.4024C84.2992 54.1907 85.9554 51.4854 87.4206 49.1056C88.9069 46.6824 90.1951 44.5847 90.2022 42.7113C90.2164 39.4924 86.5358 37.1777 82.9756 34.9353C80.4488 33.3512 78.0635 31.8466 76.8532 30.0166C75.8622 28.512 75.0554 26.87 74.2697 25.2859C72.4648 21.6186 70.6033 17.8355 66.3141 15.3833C63.9359 14.0235 59.0662 16.1067 54.3594 18.1176C50.7779 19.6511 47.4017 21.0978 44.9174 21.1773C43.6009 21.228 41.612 20.9531 39.3116 20.6348C33.8403 19.8825 26.3448 18.8482 22.6855 21.5896C18.4811 24.7434 18.5802 31.9768 18.6723 38.364C18.7289 42.2049 18.7784 45.8289 17.9078 48.2738C17.3062 49.9664 16.1313 52.0279 14.7652 54.415C11.7358 59.7243 7.96329 66.3356 9.52044 71.3557C11.927 79.1027 25.9343 78.307 35.1993 77.7862C37.2448 77.6704 39.0922 77.5619 40.5644 77.5619L40.5715 77.5692Z" fill="#12CBF8"/>
<path d="M70.8157 86.2494C65.0117 86.2494 57.1976 83.4862 51.0327 81.3017C47.2035 79.9491 43.8911 78.7772 42.0933 78.6181C40.6281 78.4879 38.3702 78.5675 35.7585 78.6615C26.2244 79.0015 11.8137 79.5078 9.37887 71.2328C7.81464 65.9017 11.6792 59.3338 14.7864 54.0534C16.1171 51.7965 17.3699 49.6554 17.9574 48.0207C18.7784 45.706 18.6722 42.1471 18.5519 38.3785C18.3537 31.9697 18.1272 24.7073 22.5227 21.4161C26.3589 18.5445 33.904 19.3112 39.4178 19.8754C41.6403 20.0996 43.5584 20.3022 44.8466 20.2298C47.2035 20.1069 50.5443 18.8121 53.7719 17.5607C58.6203 15.68 63.6244 13.7342 66.2645 15.2894C70.3697 17.7126 72.3728 21.4306 74.3122 25.0256C75.2182 26.711 76.0817 28.3024 77.1434 29.7707C78.3041 31.3693 80.4912 32.7654 82.7987 34.241C86.4934 36.5991 90.3155 39.0295 90.2871 42.6679C90.2659 44.7439 88.9636 46.9067 87.456 49.4167C86.0687 51.7242 84.4974 54.3427 83.6268 57.3952C82.7137 60.6141 82.6005 64.1946 82.4943 67.6522C82.2961 74.1189 82.0979 80.8026 76.4143 84.8244C74.9846 85.8371 73.0452 86.2494 70.8086 86.2494H70.8157ZM40.1468 77.902C40.9112 77.902 41.5836 77.9237 42.1428 77.9671C44.0185 78.1335 47.3663 79.3125 51.238 80.6796C59.6537 83.6598 71.1766 87.7322 76.0534 84.2819C81.4751 80.4482 81.6591 74.2202 81.8573 67.6305C81.9635 64.1295 82.0696 60.5128 83.011 57.2071C83.9028 54.0678 85.5024 51.4132 86.9039 49.0695C88.3619 46.6463 89.6218 44.5486 89.636 42.6535C89.6643 39.384 85.9908 37.0476 82.4448 34.7907C80.0807 33.2862 77.8441 31.8612 76.6125 30.1541C75.5225 28.6496 74.6165 26.9642 73.7389 25.3294C71.849 21.814 69.8884 18.1828 65.9319 15.8464C63.5607 14.4431 58.6911 16.3383 53.9842 18.1611C50.5585 19.492 47.3239 20.7434 44.8678 20.8736C43.5372 20.946 41.5907 20.7434 39.347 20.5119C33.9394 19.9622 26.5359 19.2027 22.8978 21.9297C18.7784 25.0184 18.9978 32.0999 19.1889 38.3424C19.3093 42.1761 19.4225 45.8 18.5519 48.2305C17.9432 49.9303 16.7329 51.9918 15.3314 54.3789C12.2879 59.5508 8.50121 65.9813 9.98758 71.0375C12.2738 78.8279 26.3943 78.3288 35.7302 77.996C37.3722 77.9382 38.8799 77.8875 40.1468 77.8875V77.902Z" fill="#1BC1F9"/>
<path d="M70.207 85.7937C64.4667 85.7937 56.9358 83.3416 50.9549 81.3886C47.2177 80.1734 43.9902 79.1173 42.1286 78.9509C40.7697 78.8279 38.6958 78.8569 36.3035 78.8858C26.6845 79.016 12.1605 79.2186 9.86019 70.9146C8.37381 65.5546 12.2596 59.1602 15.381 54.0245C16.7471 51.7677 18.0423 49.641 18.6298 47.9991C19.4508 45.6916 19.2739 42.1472 19.0899 38.3858C18.7855 32.1144 18.4387 25.0112 22.7421 21.7851C26.543 18.9351 33.7059 19.4053 39.4532 19.7887C41.612 19.9333 43.4735 20.0563 44.7829 19.9695C47.1257 19.8104 50.2966 18.7109 53.3614 17.6403C58.2239 15.9477 63.2493 14.2045 65.8752 15.8031C69.6266 18.0888 71.7004 21.626 73.7035 25.0401C74.7298 26.7906 75.6994 28.4399 76.8673 29.9155C78.0493 31.4056 80.0878 32.722 82.2466 34.1109C85.9342 36.4907 89.7421 38.9428 89.7067 42.6246C89.6784 44.7078 88.4115 46.8706 86.9322 49.3806C85.6015 51.6447 84.0868 54.2126 83.2375 57.2072C82.3244 60.4116 82.2395 63.956 82.1475 67.3774C81.9776 73.9743 81.8219 80.2095 76.3082 84.2241C74.7722 85.3453 72.6488 85.7937 70.1999 85.7937H70.207ZM39.2762 78.2276C40.4229 78.2276 41.4138 78.2493 42.1923 78.3216C44.1246 78.4952 47.3805 79.5585 51.1531 80.7882C59.5546 83.5297 71.0634 87.2766 75.9613 83.7105C81.2273 79.8768 81.3831 73.8007 81.5459 67.3557C81.6308 63.8909 81.7228 60.3031 82.6571 57.0191C83.5277 53.9449 85.0636 51.3409 86.4155 49.0407C87.8452 46.6175 89.0768 44.5198 89.098 42.6029C89.1334 39.2755 85.467 36.9174 81.9281 34.6317C79.7268 33.2139 77.6459 31.8685 76.4002 30.2989C75.1969 28.7871 74.2202 27.1161 73.1868 25.3512C71.2191 22.0021 69.1877 18.5373 65.5709 16.3311C63.1927 14.8772 58.3018 16.5843 53.5737 18.2263C50.3249 19.3547 47.2531 20.4252 44.8324 20.5844C43.4876 20.6712 41.6049 20.5482 39.4249 20.4035C34.0739 20.0491 26.7411 19.5644 23.1172 22.277C19.0828 25.3005 19.4154 32.2302 19.7127 38.3424C19.8967 42.1689 20.0737 45.7784 19.2102 48.2016C18.6015 49.9087 17.3558 51.963 15.9048 54.35C12.8471 59.3845 9.04622 65.6414 10.4547 70.7337C12.6277 78.5748 27.4419 78.365 36.2964 78.2493C37.3581 78.2348 38.3632 78.2203 39.2691 78.2203L39.2762 78.2276Z" fill="#25B6F9"/>
<path d="M69.5275 85.3526C63.8509 85.3526 56.6102 83.1898 50.8133 81.461C47.2036 80.3832 44.0822 79.4501 42.1711 79.2693C40.9254 79.1535 39.0568 79.1391 36.898 79.1174C27.7816 79.0523 12.5215 78.9365 10.3415 70.5819C8.93298 65.1858 12.84 58.965 15.9685 53.9667C17.377 51.7244 18.7077 49.605 19.288 47.9557C20.102 45.6627 19.8684 42.1256 19.6136 38.3787C19.2031 32.2447 18.736 25.2934 22.9615 22.1324C26.7482 19.2896 33.8545 19.5066 39.5664 19.673C41.6332 19.7309 43.4168 19.7888 44.7263 19.6803C47.0195 19.4922 49.9923 18.5808 52.873 17.6983C57.7922 16.1865 62.8742 14.6313 65.5001 16.2878C68.8905 18.4289 71.0068 21.7635 73.0523 24.9968C74.2131 26.8269 75.3102 28.5557 76.6054 30.0458C77.7945 31.4129 79.6844 32.6426 81.6804 33.9446C85.368 36.3461 89.183 38.8344 89.1335 42.5741C89.1051 44.6718 87.8594 46.8346 86.4155 49.3301C85.1344 51.558 83.6834 54.0752 82.8482 57.0048C81.9422 60.1875 81.8715 63.6957 81.8007 67.0882C81.6733 73.5259 81.5459 79.6092 76.1949 83.6166C74.5387 84.8607 72.2029 85.3453 69.5133 85.3453L69.5275 85.3526ZM35.2843 20.2083C30.8181 20.2083 26.0475 20.5989 23.3296 22.6315C19.373 25.5972 19.826 32.3677 20.2294 38.3497C20.4842 42.1618 20.7249 45.764 19.8684 48.18C19.2597 49.8871 17.9786 51.9341 16.4852 54.3067C13.4133 59.2037 9.59123 65.3015 10.929 70.4372C12.9887 78.3434 27.9656 78.4591 36.9122 78.5242C39.0851 78.5387 40.9608 78.5532 42.2348 78.6761C44.2025 78.8642 47.3451 79.7973 50.9903 80.8895C59.406 83.3996 70.9289 86.8354 75.8623 83.1464C80.9796 79.3127 81.0929 73.3812 81.2203 67.0954C81.2911 63.6595 81.3618 60.1151 82.2891 56.8529C83.1455 53.851 84.6177 51.2976 85.913 49.0408C87.3144 46.6103 88.5177 44.5199 88.546 42.5813C88.5884 39.1816 84.9221 36.7946 81.3689 34.4799C79.3375 33.1561 77.4123 31.9048 76.1666 30.4725C74.836 28.9463 73.7318 27.203 72.5568 25.3513C70.5467 22.1758 68.4587 18.899 65.1887 16.8303C62.7963 15.3185 57.8417 16.8303 53.05 18.3059C50.0064 19.239 47.1328 20.1215 44.7829 20.3096C43.4452 20.4181 41.6474 20.3674 39.5594 20.3096C38.2287 20.2734 36.7706 20.23 35.2843 20.23V20.2083Z" fill="#2EABFA"/>
<path d="M68.756 84.9329C63.1573 84.9329 56.1926 83.0449 50.5798 81.5259C47.1257 80.5928 44.1459 79.7827 42.2136 79.5946C41.0882 79.4861 39.4461 79.4355 37.5492 79.3848C28.3266 79.1244 12.8896 78.6832 10.837 70.2562C9.51338 64.8239 13.4346 58.7695 16.5843 53.9087C18.0282 51.6808 19.3942 49.5759 19.9746 47.9339C20.7886 45.6553 20.4842 42.1254 20.1657 38.393C19.649 32.3964 19.0686 25.5898 23.2022 22.4939C26.996 19.6511 34.0952 19.6005 39.7929 19.5571C41.7252 19.5426 43.3956 19.5282 44.6838 19.4052C46.878 19.1954 49.4897 18.501 52.2502 17.7704C57.2826 16.4323 62.4778 15.0507 65.125 16.7867C68.1473 18.7687 70.2848 21.8935 72.3445 24.9171C73.661 26.8484 74.9067 28.6712 76.3507 30.1758C77.5327 31.4127 79.2597 32.5484 81.0929 33.7491C84.8017 36.1868 88.6309 38.704 88.5672 42.516C88.5318 44.6282 87.3144 46.7837 85.9059 49.2865C84.6743 51.471 83.28 53.9448 82.466 56.8093C81.5671 59.9775 81.5105 63.4496 81.4609 66.8131C81.3689 73.0917 81.284 79.0159 76.0958 83.016C74.298 84.4048 71.7146 84.9329 68.756 84.9329ZM61.7063 16.5552C59.1016 16.5552 55.7113 17.4594 52.3917 18.3347C49.603 19.0725 46.97 19.7741 44.7334 19.9911C43.4239 20.1141 41.7465 20.1285 39.7929 20.143C34.4703 20.1792 27.18 20.237 23.5348 22.9641C19.6561 25.8719 20.2294 32.4905 20.732 38.3423C21.0575 42.1399 21.369 45.7277 20.5125 48.1292C19.9038 49.8363 18.5873 51.8688 17.0585 54.2269C13.9725 58.9938 10.1292 64.9252 11.389 70.1116C13.3355 78.0973 28.5036 78.5313 37.5634 78.7917C39.4744 78.8495 41.1236 78.8929 42.2702 79.0087C44.2521 79.204 47.2531 80.0141 50.7284 80.9617C59.1866 83.2547 70.7732 86.3868 75.749 82.5531C80.7107 78.7266 80.7956 72.9398 80.8876 66.8059C80.9372 63.4062 80.9867 59.8907 81.9139 56.6501C82.7491 53.7206 84.1576 51.2106 85.4034 48.9972C86.7694 46.5667 87.9514 44.469 87.9868 42.516C88.0435 39.0295 84.3488 36.6063 80.7744 34.2554C78.92 33.033 77.1646 31.8829 75.9331 30.5953C74.4608 29.0546 73.201 27.2101 71.8703 25.2571C69.8389 22.2841 67.7368 19.2027 64.8065 17.2858C64.0137 16.765 62.945 16.5625 61.6993 16.5625L61.7063 16.5552Z" fill="#37A1FA"/>
<path d="M67.8783 84.5496C62.3575 84.5496 55.6759 82.9221 50.2471 81.5984C46.9912 80.8027 44.1813 80.1228 42.2561 79.9202C41.2651 79.819 39.8708 79.7466 38.257 79.6743C29.5228 79.2403 13.2576 78.4446 11.3182 69.9309C10.0725 64.4624 14.015 58.5671 17.1859 53.8365C18.7289 51.529 20.0595 49.5398 20.6399 47.9051C21.4468 45.641 21.0788 42.1255 20.6824 38.4148C20.0666 32.5485 19.3659 25.8937 23.4145 22.8557C27.2508 19.984 34.6968 19.6513 40.1397 19.4126C41.888 19.333 43.3956 19.2679 44.6201 19.1377C46.6444 18.9207 48.9518 18.3999 51.4008 17.8429C56.6314 16.6639 62.039 15.4486 64.7357 17.2859C67.397 19.1015 69.5133 21.9949 71.5588 24.7942C73.0594 26.8485 74.475 28.7871 76.0817 30.3206C77.2354 31.4201 78.7925 32.4472 80.4346 33.5322C84.1859 36.0061 88.0576 38.5667 87.9868 42.4727C87.9443 44.5994 86.7552 46.7549 85.3821 49.2505C84.2072 51.3916 82.8694 53.8148 82.0696 56.6141C81.1707 59.7607 81.1424 63.2038 81.1141 66.5239C81.0575 72.6434 81.0079 78.4229 75.9826 82.4085C74.0291 83.9637 71.1554 84.5352 67.8712 84.5352L67.8783 84.5496ZM60.7791 16.9026C58.139 16.9026 54.7982 17.6548 51.5211 18.3926C49.058 18.9496 46.7364 19.4704 44.6838 19.6947C43.4452 19.8321 41.9305 19.8972 40.1751 19.9768C34.81 20.2155 27.456 20.541 23.7542 23.3114C19.9534 26.1541 20.6116 32.3532 21.2416 38.3497C21.6379 42.1328 22.0201 45.7061 21.1637 48.0931C20.555 49.8002 19.2102 51.8183 17.646 54.1547C14.5387 58.7986 10.6742 64.5709 11.8632 69.8007C13.7035 77.8949 29.6927 78.6833 38.2853 79.1028C39.9062 79.1824 41.3076 79.2547 42.3127 79.356C44.2803 79.5586 47.1045 80.2457 50.3816 81.0414C58.9176 83.1246 70.6033 85.9674 75.6499 81.9673C80.4629 78.148 80.5125 72.4987 80.5691 66.5239C80.5974 63.1604 80.6328 59.6811 81.5459 56.455C82.3598 53.5905 83.7117 51.1384 84.9079 48.9756C86.2456 46.5452 87.3993 44.4475 87.4418 42.4655C87.5126 38.8777 83.7683 36.4039 80.1444 34.0096C78.4811 32.9101 76.9027 31.8685 75.7136 30.7329C74.0715 29.1705 72.571 27.1162 71.12 25.1342C69.1028 22.371 67.0219 19.5211 64.4384 17.7561C63.5324 17.1413 62.2726 16.9026 60.7791 16.9026Z" fill="#4097FB"/>
<path d="M66.8661 84.195C61.4303 84.195 55.0247 82.8062 49.7799 81.6633C46.7718 81.0123 44.1813 80.4481 42.2914 80.2456C41.4562 80.1588 40.3308 80.0792 39.0285 79.9924C30.1456 79.3776 13.6186 78.2347 11.7995 69.6052C10.6388 64.0933 14.6024 58.3572 17.7875 53.7568C19.3659 51.4782 20.7249 49.5035 21.3053 47.876C22.1051 45.6264 21.6662 42.1326 21.2062 38.4363C20.4842 32.7002 19.6702 26.1974 23.641 23.2172C27.5622 20.2732 35.171 19.6656 40.7201 19.2171C42.1357 19.1014 43.4735 18.9929 44.5635 18.8627C46.2905 18.6529 48.1874 18.2985 50.1904 17.9223C55.7679 16.8735 61.5364 15.7957 64.3535 17.7921C66.6609 19.4269 68.7135 22.0743 70.6953 24.6277C72.3303 26.7327 74.022 28.9099 75.8127 30.4651C76.9098 31.4127 78.2688 32.3096 79.7197 33.2644C83.5418 35.7889 87.4984 38.4002 87.4135 42.4292C87.364 44.5703 86.2032 46.7259 84.8654 49.2214C83.74 51.3191 82.4589 53.6917 81.6874 56.4259C80.7956 59.558 80.7885 62.9577 80.7744 66.2489C80.7602 72.2092 80.739 77.8369 75.8764 81.8152C73.7389 83.5657 70.5184 84.1878 66.8661 84.1878V84.195ZM59.6537 17.2062C56.9287 17.2062 53.5808 17.8355 50.2966 18.4504C48.2865 18.8265 46.3825 19.1882 44.6342 19.398C43.5372 19.5282 42.1923 19.6367 40.7697 19.7524C35.2842 20.1936 27.7674 20.8012 23.9666 23.6512C20.2506 26.4361 21.008 32.4977 21.7441 38.364C22.2183 42.1326 22.6642 45.6842 21.8219 48.064C21.2203 49.7639 19.833 51.7603 18.2334 54.075C15.112 58.5959 11.2191 64.2163 12.3304 69.4967C14.0645 77.7211 30.9596 78.8929 39.078 79.4571C40.3875 79.544 41.5129 79.6235 42.3551 79.7175C44.2662 79.9201 46.878 80.4843 49.8932 81.1425C58.5495 83.0232 70.4122 85.5983 75.5437 81.4029C80.2152 77.5909 80.2294 72.0863 80.2435 66.2561C80.2506 62.9288 80.2647 59.4856 81.1778 56.2812C81.9705 53.4891 83.2658 51.0876 84.4054 48.9682C85.7148 46.5378 86.8402 44.4329 86.8897 42.4292C86.9747 38.704 83.1455 36.1795 79.4437 33.7346C77.9856 32.7726 76.6054 31.8612 75.4871 30.8919C73.6539 29.3078 71.9481 27.1088 70.299 24.9822C68.3384 22.4577 66.3141 19.8464 64.0703 18.2551C63.0157 17.51 61.4798 17.2279 59.6679 17.2279L59.6537 17.2062Z" fill="#498CFB"/>
<path d="M65.7054 83.8768C60.3544 83.8768 54.2249 82.705 49.1571 81.7285C46.4604 81.2149 44.1317 80.7664 42.341 80.5711C41.6898 80.4988 40.8688 80.4264 39.9132 80.3469C31.5046 79.6091 14.0079 78.0683 12.295 69.2797C11.2121 63.7244 15.204 58.1475 18.4104 53.6627C20.0171 51.4131 21.4114 49.4673 21.9847 47.8471C22.7775 45.6119 22.2749 42.1399 21.7299 38.4581C20.9089 32.8521 19.9817 26.494 23.8675 23.5789C27.9727 20.5047 35.8929 19.5933 41.6756 18.9278C42.709 18.8121 43.6716 18.6963 44.5139 18.5878C45.7172 18.4287 46.97 18.2334 48.3006 18.0236C54.2249 17.0905 60.9419 16.0416 63.9783 18.2912C65.9389 19.7452 67.7934 22.0092 69.761 24.4107C71.6225 26.682 73.5477 29.0329 75.5579 30.6098C76.5488 31.3838 77.6954 32.136 78.9128 32.9389C82.6783 35.4055 86.9463 38.2049 86.8402 42.393C86.7835 44.5486 85.6511 46.7042 84.3416 49.1997C83.2658 51.254 82.0484 53.5759 81.291 56.2378C80.4063 59.3482 80.4204 62.719 80.4275 65.974C80.4488 71.7752 80.47 77.2582 75.7561 81.2221C73.4062 83.2041 69.7752 83.884 65.6983 83.884L65.7054 83.8768ZM58.2098 17.4594C55.23 17.4594 51.6839 18.0164 48.3785 18.5372C47.0478 18.747 45.7879 18.9423 44.5847 19.1014C43.7353 19.2171 42.7727 19.3256 41.7323 19.4414C36.0062 20.0996 28.1638 21.0038 24.1718 23.9912C20.5267 26.7182 21.3973 32.6496 22.2325 38.3785C22.7775 42.1254 23.3012 45.6626 22.459 48.0207C21.8573 49.7133 20.4488 51.6808 18.8138 53.9665C15.6641 58.3645 11.75 63.8402 12.7905 69.1712C14.4255 77.5765 32.3115 79.1461 39.9486 79.8188C40.9112 79.9056 41.7393 79.978 42.3905 80.0503C44.2025 80.2456 46.5382 80.6941 49.242 81.2149C58.0824 82.9075 70.1786 85.2294 75.4376 80.8098C79.9604 77.005 79.9391 71.6378 79.9179 65.9596C79.9038 62.6684 79.8967 59.2614 80.8027 56.0787C81.5742 53.3589 82.8057 51.0081 83.8957 48.9393C85.1698 46.5016 86.2739 44.3967 86.3306 42.3641C86.4296 38.4653 82.466 35.8685 78.6368 33.3657C77.4123 32.5628 76.2515 31.8033 75.2465 31.0149C73.1938 29.4018 71.2474 27.0292 69.3647 24.7362C67.4182 22.3637 65.585 20.1213 63.674 18.7036C62.4282 17.7849 60.4818 17.4594 58.2027 17.4594H58.2098Z" fill="#5282FC"/>
<path d="M64.3605 83.6163C59.0945 83.6163 53.2127 82.6254 48.3006 81.8008C46.0003 81.4101 44.0043 81.0774 42.3764 80.8966C41.9588 80.8459 41.4633 80.7953 40.9112 80.7374C32.9698 79.9128 14.383 77.9743 12.7763 68.9542C11.7783 63.3555 15.7915 57.9232 19.0191 53.5614C20.6612 51.3408 22.0768 49.4239 22.6501 47.8181C23.4428 45.5974 22.8624 42.1471 22.2466 38.487C21.284 32.7364 20.286 26.7905 24.094 23.9333C28.5673 20.577 37.4855 19.3039 43.3885 18.4648L44.698 18.2768C51.5424 17.2858 60.0642 16.0489 63.5961 18.7831C65.2241 20.0417 66.9299 22.0309 68.7277 24.1286C70.851 26.5952 73.0381 29.1486 75.296 30.74C76.1171 31.3259 77.0089 31.8973 77.9502 32.4977C81.9068 35.0366 86.3872 37.9155 86.2669 42.3279C86.2032 44.5052 85.099 46.6607 83.825 49.149C82.7987 51.1527 81.6379 53.424 80.9018 56.028C80.0241 59.1239 80.0524 62.4513 80.0878 65.6702C80.1444 71.3195 80.201 76.6578 75.6499 80.6072C73.0523 82.8641 68.9329 83.6091 64.3535 83.6091L64.3605 83.6163ZM56.3624 17.6113C52.7456 17.6113 48.5059 18.2261 44.7687 18.7686L43.4593 18.9567C37.6058 19.7958 28.7584 21.0544 24.3842 24.3384C20.8169 27.0147 21.7866 32.8015 22.7279 38.4074C23.3508 42.1326 23.9453 45.6481 23.1101 47.9917C22.5156 49.6698 21.0717 51.6156 19.4084 53.8652C16.2374 58.1474 12.295 63.4785 13.2576 68.8674C14.8006 77.5258 33.812 79.5005 40.9679 80.2456C41.527 80.3034 42.0154 80.3541 42.433 80.4047C44.0751 80.5928 46.0711 80.9255 48.3785 81.3161C57.4666 82.8424 69.9168 84.9328 75.3385 80.2383C79.7197 76.4408 79.6631 71.2182 79.6065 65.6847C79.5711 62.4296 79.5357 59.0588 80.4346 55.8978C81.1849 53.2504 82.3598 50.9574 83.3932 48.932C84.6389 46.4944 85.7148 44.3822 85.7785 42.3207C85.8917 38.1976 81.5317 35.3983 77.6884 32.9317C76.7399 32.3241 75.8481 31.7454 75.0129 31.1595C72.7126 29.5247 70.4972 26.9569 68.3596 24.4613C66.5689 22.3781 64.8843 20.4179 63.2989 19.1882C61.7912 18.0236 59.2786 17.6185 56.3624 17.6185V17.6113Z" fill="#5B77FC"/>
<path d="M62.7043 83.385C57.41 83.385 51.691 82.5459 47.1398 81.8732C45.4128 81.62 43.7778 81.3813 42.4188 81.2222L42.1145 81.186C35.355 80.4048 14.7864 78.0322 13.2647 68.6288C12.3516 62.9795 16.3931 57.699 19.6419 53.453C21.3123 51.2685 22.7562 49.3878 23.3225 47.7892C24.1081 45.5903 23.4499 42.1544 22.7633 38.5232C21.6945 32.9028 20.5904 27.0944 24.3205 24.3023C27.817 21.6838 34.5764 19.5716 44.4077 18.0454C51.0186 17.011 59.6537 16.3889 63.2139 19.2968C64.5163 20.3601 66.0168 22.0382 67.6093 23.8177C69.9026 26.3783 72.5002 29.2861 75.0341 30.8992C75.5862 31.2536 76.1595 31.6081 76.747 31.9697C81.0079 34.6027 85.8422 37.5829 85.6935 42.2991C85.6228 44.498 84.5469 46.6536 83.3083 49.1491C82.3386 51.1094 81.2344 53.3301 80.5125 55.8545C79.6348 58.9287 79.6985 62.2199 79.748 65.4027C79.8471 70.9001 79.9391 76.0937 75.5367 80.0214C72.663 82.5893 67.8854 83.3922 62.6972 83.3922L62.7043 83.385ZM54.0833 17.662C50.6717 17.662 47.0832 18.096 44.4785 18.5011C34.718 20.0201 28.0293 22.1033 24.5965 24.6784C21.1071 27.2969 22.1829 32.9535 23.2234 38.4292C23.9241 42.1255 24.5894 45.6192 23.7613 47.9484C23.1668 49.6193 21.7016 51.5289 20.01 53.7424C16.8178 57.916 12.8471 63.1024 13.7247 68.5492C14.6944 74.5529 24.2638 78.6398 42.164 80.7086L42.4755 80.7448C43.8415 80.9039 45.4765 81.1426 47.2106 81.3958C56.1218 82.705 69.5912 84.687 75.2394 79.6453C79.4791 75.8622 79.3871 70.7771 79.2951 65.3882C79.2384 62.1693 79.1818 58.8419 80.0736 55.6954C80.8027 53.1275 81.921 50.8852 82.8977 48.9104C84.1152 46.4655 85.1627 44.3534 85.2335 42.2629C85.368 37.8216 80.6611 34.921 76.5134 32.3531C75.9259 31.9914 75.3455 31.637 74.7935 31.2826C72.21 29.6333 69.5841 26.7038 67.2767 24.1142C65.6983 22.3493 64.2119 20.6856 62.9308 19.644C61.0834 18.1322 57.6789 17.6548 54.0904 17.6548L54.0833 17.662Z" fill="#646DFD"/>
<path d="M60.9206 83.2548C55.6263 83.2548 50.0276 82.5242 45.519 81.9311C44.4219 81.7864 43.3956 81.6562 42.4684 81.5405C36.0699 80.781 15.1049 77.5693 13.7601 68.2961C12.932 62.5961 17.0018 57.4604 20.2719 53.3301C21.9706 51.189 23.4357 49.3372 24.0019 47.7459C24.7805 45.5614 24.0515 42.1544 23.28 38.5449C22.1051 33.0548 20.8947 27.3765 24.547 24.6423C29.0698 21.2498 38.0446 18.8121 44.3582 17.7488C51.0964 16.6421 59.4201 16.8374 62.8317 19.7742C63.8297 20.635 65.0188 21.9153 66.3919 23.4054C68.855 26.0673 71.9198 29.3874 74.7722 31.0222L75.1049 31.2175C79.8825 33.9517 85.2901 37.0549 85.1131 42.2268C85.0353 44.4474 83.9948 46.603 82.7845 49.1058C81.8643 51.0154 80.8168 53.1782 80.1161 55.6375C79.2455 58.6901 79.3304 61.9451 79.4083 65.0916C79.5428 70.4371 79.6702 75.4933 75.4234 79.3994C72.21 82.3506 66.7458 83.2403 60.9065 83.2403L60.9206 83.2548ZM51.9033 17.5825C49.4119 17.5825 46.8213 17.8139 44.429 18.2045C37.6695 19.3402 28.9778 21.8936 24.8088 25.0184C21.3902 27.5791 22.5722 33.1126 23.7118 38.4581C24.4974 42.1327 25.2335 45.5975 24.4125 47.905C23.825 49.5615 22.3315 51.4422 20.6116 53.6122C17.3911 57.6701 13.3921 62.7263 14.1919 68.2237C15.4942 77.1787 36.1973 80.3325 42.5179 81.0848C43.4451 81.1933 44.4714 81.3307 45.5756 81.4754C54.9681 82.705 69.1665 84.5568 75.1403 79.0666C79.2384 75.298 79.111 70.3431 78.9836 65.1061C78.9057 61.9234 78.8208 58.6394 79.7056 55.5146C80.4134 53.019 81.468 50.8345 82.3952 48.9104C83.5772 46.4583 84.6035 44.3389 84.6743 42.2195C84.8442 37.3225 79.5569 34.2917 74.8925 31.6153L74.5528 31.42C71.6438 29.7491 68.6852 26.5447 66.0734 23.7236C64.7073 22.248 63.5253 20.9677 62.5486 20.1286C60.4323 18.3058 56.327 17.5825 51.9033 17.5825Z" fill="#6E62FD"/>
<path d="M58.8256 83.1896C53.2552 83.1896 47.5079 82.4807 43.1196 81.9454L42.5038 81.8731C42.2348 81.8369 15.5863 78.4589 14.2344 67.9849C13.4912 62.2343 17.5964 57.236 20.8877 53.2215C22.6147 51.1166 24.1011 49.301 24.6602 47.7385C25.4317 45.5757 24.6248 42.1905 23.7755 38.61C22.5014 33.25 21.1849 27.7019 24.7593 25.0256C29.3671 21.5752 38.2641 18.5661 44.2945 17.4956C51.6344 16.208 59.2644 17.3871 62.4424 20.2949C63.1502 20.9387 64.0421 21.8863 65.0754 22.9785C67.6943 25.7489 71.2757 29.5392 74.5033 31.1884C79.8259 33.9155 84.7239 37.1343 84.5328 42.1977C84.4478 44.4401 83.4357 46.6029 82.2607 49.1057C81.3902 50.9647 80.4063 53.0768 79.7268 55.4566C78.8633 58.4947 78.9695 61.7063 79.0757 64.8167C79.2526 70.0175 79.4154 74.929 75.3102 78.8134C71.7287 82.2131 65.3869 83.1968 58.8114 83.1968L58.8256 83.1896ZM50.1763 17.4088C48.2723 17.4088 46.3117 17.5679 44.3865 17.9079C38.3207 18.9856 29.4166 22.0743 25.0283 25.3583C21.6804 27.8683 22.9615 33.2717 24.2072 38.4942C25.0707 42.1399 25.8918 45.583 25.0778 47.8687C24.4904 49.5107 22.9827 51.348 21.2345 53.4819C17.9928 57.4313 13.9583 62.3501 14.6732 67.9126C15.9826 78.0611 42.3056 81.4029 42.5746 81.4319L43.1903 81.5042C52.0661 82.5965 68.579 84.6218 75.0554 78.4806C79.019 74.7265 78.8562 69.909 78.6864 64.8094C78.5802 61.6701 78.474 58.4151 79.3588 55.3192C80.0453 52.9032 81.0433 50.7766 81.921 48.9031C83.0747 46.4438 84.0656 44.3171 84.1506 42.1616C84.3346 37.3369 79.5499 34.212 74.3476 31.5501C71.0563 29.8647 67.4466 26.0455 64.8065 23.2534C63.7802 22.1684 62.8883 21.228 62.1947 20.5915C59.9793 18.5661 55.3149 17.4015 50.1905 17.4015L50.1763 17.4088Z" fill="#7758FE"/>
<path d="M56.5748 83.1896C52.4979 83.1896 47.8335 82.8569 42.5533 82.1914C36.9405 81.4825 15.7774 76.9471 14.7298 67.6522C14.0786 61.851 18.2122 56.9901 21.5317 53.084C23.28 51.0298 24.7876 49.2503 25.3397 47.6951C26.1041 45.5468 25.2264 42.1905 24.2922 38.6389C22.919 33.4019 21.4964 27.9913 24.9929 25.3728C29.4661 22.0237 38.1013 18.3563 44.252 17.2062C51.9953 15.774 59.2078 17.9802 62.0673 20.7795C62.492 21.1918 63.0299 21.7633 63.6598 22.4143C66.2362 25.1196 70.5608 29.6405 74.2485 31.3186C78.5306 33.2644 84.193 36.4978 83.9665 42.1399C83.8745 44.4112 82.8907 46.5812 81.7511 49.0912C80.9301 50.8996 80.0029 52.9466 79.3446 55.2541C78.4882 58.2704 78.6227 61.4459 78.7501 64.5129C78.9624 69.5618 79.1606 74.3359 75.204 78.2058C71.7995 81.5404 65.6487 83.1896 56.5677 83.1896H56.5748ZM49.1995 17.1628C47.6282 17.1628 45.9932 17.3003 44.3299 17.6113C38.2287 18.7542 29.6643 22.3854 25.2335 25.7055C21.9564 28.1576 23.3437 33.438 24.6814 38.5448C25.6299 42.1616 26.5217 45.5757 25.7148 47.8398C25.1344 49.4601 23.6056 51.2685 21.829 53.3517C18.559 57.1999 14.4892 61.9812 15.1262 67.6088C16.1313 76.5565 37.3935 81.1353 42.6029 81.7935C59.2856 83.8912 70.1645 82.5892 74.9421 77.9164C78.7642 74.1767 78.5731 69.4967 78.3608 64.5346C78.2334 61.4314 78.0989 58.227 78.9695 55.1456C79.6348 52.8092 80.5691 50.7477 81.3972 48.9248C82.5155 46.451 83.4852 44.3171 83.5772 42.1254C83.7471 38.024 80.7319 34.7111 74.0927 31.6948C70.3273 29.9877 65.9814 25.4306 63.3767 22.7036C62.7538 22.0526 62.2159 21.4884 61.7983 21.0761C59.6183 18.9422 54.8194 17.1628 49.1995 17.1628Z" fill="#804DFE"/>
<path d="M54.1117 83.2764C49.2066 83.2764 44.8537 82.8135 42.5958 82.5169C36.806 81.7791 16.0817 76.3323 15.2182 67.3267C14.6591 61.4748 18.8209 56.7442 22.1688 52.9466C23.9383 50.9357 25.4671 49.1997 26.0121 47.6662C26.7695 45.5396 25.8139 42.2122 24.7947 38.6895C23.3225 33.5755 21.8007 28.2951 25.2194 25.7272C29.6714 22.3926 37.8323 18.1755 44.2025 16.9241C51.5424 15.4919 58.6911 18.0959 61.6851 21.2714L62.0673 21.6765C64.3252 24.078 69.5983 29.7056 73.9866 31.4561C80.4205 34.0312 83.5843 37.6045 83.3861 42.082C83.28 44.3822 82.3244 46.5595 81.2203 49.084C80.4134 50.9212 79.5782 52.8236 78.9483 55.0515C78.0989 58.0462 78.2546 61.1783 78.4103 64.2091C78.6581 69.1133 78.8987 73.75 75.0837 77.5981C70.5609 82.1624 61.6639 83.2692 54.0904 83.2692L54.1117 83.2764ZM48.4281 16.9169C47.0691 16.9169 45.6747 17.0399 44.2733 17.3147C38.1862 18.5082 29.9192 22.6892 25.4388 26.0455C22.2325 28.447 23.7189 33.6044 25.1486 38.5883C26.182 42.1688 27.1517 45.554 26.3589 47.8036C25.7856 49.4095 24.2356 51.1744 22.4377 53.2143C19.1394 56.9539 15.0342 61.6123 15.5863 67.2977C16.4286 76.0719 36.9122 81.4102 42.6383 82.1407C48.336 82.8858 67.5032 84.7303 74.836 77.3377C78.5236 73.6125 78.2971 69.0627 78.0494 64.2452C77.8936 61.1855 77.7308 58.0173 78.6014 54.9575C79.2385 52.7079 80.1161 50.7043 80.8947 48.9393C81.9847 46.451 82.9261 44.3099 83.0252 42.082C83.2163 37.7853 80.1303 34.3422 73.8592 31.8322C69.393 30.0456 64.0774 24.3818 61.8054 21.9586L61.4232 21.5535C59.0662 19.0508 54.055 16.9241 48.4351 16.9241L48.4281 16.9169Z" fill="#8942FF"/>
<path d="M52.0166 83.4356C48.5059 83.4356 45.2217 83.1896 42.6312 82.8424C36.3743 82.0178 16.3861 75.6813 15.6995 67.0084C15.2324 61.0987 19.4296 56.5055 22.7987 52.8164C24.5894 50.8562 26.1395 49.1636 26.6774 47.6445C27.4277 45.5396 26.3872 42.2412 25.2902 38.7547C23.7189 33.7636 22.098 28.6061 25.4388 26.1034C30.1881 22.5445 37.9385 17.9368 44.1459 16.671C52.1015 15.0435 58.7619 18.841 61.3029 21.7923C63.1856 23.9768 69.0886 30.0094 73.7318 31.6297C79.8967 33.7781 83.0393 37.3803 82.8199 42.0603C82.7066 44.3967 81.7794 46.5885 80.7107 49.1202C79.9604 50.8996 79.1818 52.7369 78.566 54.878C77.7238 57.8509 77.9078 60.9396 78.0918 63.927C78.382 68.6938 78.658 73.193 74.9846 77.0123C70.1786 82.0106 60.4323 83.4428 52.0166 83.4428V83.4356ZM47.9043 16.6421C46.7152 16.6421 45.4836 16.7578 44.2237 17.011C38.073 18.2696 30.3721 22.8483 25.6582 26.3855C22.5227 28.7364 24.1011 33.7708 25.637 38.6317C26.7553 42.1833 27.8099 45.5324 27.0172 47.7603C26.4509 49.3444 24.8796 51.066 23.0677 53.0551C19.741 56.6936 15.6004 61.2289 16.0605 66.9723C16.7329 75.4426 36.5017 81.6634 42.6878 82.4807C51.4362 83.6381 68.034 83.7321 74.7439 76.7446C78.3041 73.0411 78.0352 68.6143 77.7521 63.9342C77.568 60.9179 77.3769 57.793 78.2404 54.7622C78.8562 52.5994 79.6419 50.7477 80.3992 48.961C81.4609 46.4583 82.374 44.2955 82.4801 42.0242C82.7491 36.3387 77.8228 33.4164 73.6327 31.9552C68.9188 30.3132 62.952 24.2227 61.0551 22.0165C59.0521 19.6946 54.0409 16.6421 47.9114 16.6421H47.9043Z" fill="#9238FF"/>
</g>
</g>
<path d="M59.5589 51.6316H33.5357V50.3684H59.5589C55.9441 48.5495 53.8502 44.7773 53.3252 39.1221L54.5976 39C55.3054 46.6286 58.9029 50.3339 65.5357 50.3339V51.6661C58.9029 51.6661 55.3054 55.3714 54.5976 63L53.3252 62.8779C53.8502 57.2227 55.9437 53.4505 59.5589 51.6316Z" fill="url(#paint0_linear_909_1873)"/>
<defs>
<filter id="filter0_d_909_1873" x="2.99999" y="7" width="93" height="97" filterUnits="userSpaceOnUse" color-interpolation-filters="sRGB">
<feFlood flood-opacity="0" result="BackgroundImageFix"/>
<feColorMatrix in="SourceAlpha" type="matrix" values="0 0 0 0 0 0 0 0 0 0 0 0 0 0 0 0 0 0 127 0" result="hardAlpha"/>
<feOffset dy="4"/>
<feGaussianBlur stdDeviation="2"/>
<feComposite in2="hardAlpha" operator="out"/>
<feColorMatrix type="matrix" values="0 0 0 0 0 0 0 0 0 0 0 0 0 0 0 0 0 0 0.25 0"/>
<feBlend mode="normal" in2="BackgroundImageFix" result="effect1_dropShadow_909_1873"/>
<feBlend mode="normal" in="SourceGraphic" in2="effect1_dropShadow_909_1873" result="shape"/>
</filter>
<linearGradient id="paint0_linear_909_1873" x1="65.5357" y1="43.4722" x2="65.5357" y2="51" gradientUnits="userSpaceOnUse">
<stop stop-color="#B551D9"/>
<stop offset="1" stop-color="#D50A95"/>
</linearGradient>
</defs>
</svg>
